FrauncesItalic_OpticalMax.ufo
<glyph name="dollar" format="2">
  <advance width="461"/>
  <unicode hex="0024"/>
  <outline>
    <contour>
      <point x="244" y="0" type="curve" smooth="yes"/>
      <point x="345" y="0"/>
      <point x="435" y="55"/>
      <point x="457" y="140" type="curve" smooth="yes"/>
      <point x="477" y="221"/>
      <point x="450" y="290"/>
      <point x="336" y="342" type="curve" smooth="yes"/>
      <point x="250" y="381"/>
      <point x="224" y="427"/>
      <point x="240" y="488" type="curve" smooth="yes"/>
      <point x="262" y="571"/>
      <point x="338" y="620"/>
      <point x="415" y="620" type="curve" smooth="yes"/>
      <point x="472" y="620"/>
      <point x="502" y="578"/>
      <point x="487" y="522" type="curve" smooth="yes"/>
      <point x="480" y="496" type="line" smooth="yes"/>
      <point x="473" y="472"/>
      <point x="486" y="455"/>
      <point x="505" y="455" type="curve" smooth="yes"/>
      <point x="523" y="455"/>
      <point x="542" y="469"/>
      <point x="550" y="495" type="curve" smooth="yes"/>
      <point x="569" y="564"/>
      <point x="507" y="629"/>
      <point x="419" y="629" type="curve" smooth="yes"/>
      <point x="307" y="629"/>
      <point x="207" y="569"/>
      <point x="182" y="470" type="curve" smooth="yes"/>
      <point x="161" y="390"/>
      <point x="192" y="322"/>
      <point x="306" y="274" type="curve" smooth="yes"/>
      <point x="394" y="237"/>
      <point x="422" y="189"/>
      <point x="405" y="129" type="curve" smooth="yes"/>
      <point x="385" y="57"/>
      <point x="322" y="14"/>
      <point x="247" y="14" type="curve" smooth="yes"/>
      <point x="176" y="14"/>
      <point x="142" y="59"/>
      <point x="158" y="117" type="curve" smooth="yes"/>
      <point x="165" y="143" type="line" smooth="yes"/>
      <point x="172" y="170"/>
      <point x="159" y="189"/>
      <point x="140" y="189" type="curve" smooth="yes"/>
      <point x="119" y="189"/>
      <point x="98" y="174"/>
      <point x="90" y="144" type="curve" smooth="yes"/>
      <point x="71" y="77"/>
      <point x="131" y="0"/>
    </contour>
    <contour>
      <point x="313" y="295" type="line"/>
      <point x="249.73468204742275" y="58.74357827084438"/>
      <point x="210.88456008475305" y="12.549784330536873"/>
      <point x="201" y="-26" type="curve" smooth="yes"/>
      <point x="192.2578229040268" y="-56.597619835906215"/>
      <point x="207.0" y="-70.0"/>
      <point x="225" y="-70" type="curve" smooth="yes"/>
      <point x="243.57777777777778" y="-70.0"/>
      <point x="260.62628741238393" y="-58.12113776284825"/>
      <point x="269" y="-33" type="curve" smooth="yes"/>
      <point x="280.1073635768537" y="6.380652681572251"/>
      <point x="265.3680784595299" y="52.66675123518732"/>
      <point x="331" y="295" type="curve"/>
    </contour>
    <contour>
      <point x="340" y="335" type="line"/>
      <point x="405" y="578"/>
      <point x="441" y="621"/>
      <point x="453" y="663" type="curve" smooth="yes"/>
      <point x="461" y="691"/>
      <point x="445" y="704"/>
      <point x="430" y="704" type="curve" smooth="yes"/>
      <point x="412" y="704"/>
      <point x="395" y="692"/>
      <point x="388" y="665" type="curve" smooth="yes"/>
      <point x="377" y="628"/>
      <point x="390" y="583"/>
      <point x="323" y="335" type="curve"/>
    </contour>
  </outline>
</glyph>
<glyph name="period" format="2">
  <advance width="211"/>
  <unicode hex="002E"/>
  <outline>
    <contour>
      <point x="112" y="-10" type="curve" smooth="yes"/>
      <point x="138" y="-10"/>
      <point x="175" y="39"/>
      <point x="175" y="88" type="curve" smooth="yes"/>
      <point x="175" y="111"/>
      <point x="165" y="127"/>
      <point x="144" y="127" type="curve" smooth="yes"/>
      <point x="117" y="127"/>
      <point x="81" y="69"/>
      <point x="81" y="29" type="curve" smooth="yes"/>
      <point x="81" y="7"/>
      <point x="91" y="-10"/>
    </contour>
  </outline>
</glyph>
<glyph name="two" format="2">
  <advance width="476"/>
  <unicode hex="0032"/>
  <outline>
    <contour>
      <point x="283" y="270" type="curve" smooth="yes"/>
      <point x="139" y="196"/>
      <point x="63" y="104"/>
      <point x="37" y="8" type="curve" smooth="yes"/>
      <point x="34" y="-4"/>
      <point x="38" y="-10"/>
      <point x="48" y="-10" type="curve" smooth="yes"/>
      <point x="71" y="-10"/>
      <point x="89" y="70"/>
      <point x="142" y="70" type="curve" smooth="yes"/>
      <point x="210" y="70"/>
      <point x="244" y="-10"/>
      <point x="333" y="-10" type="curve" smooth="yes"/>
      <point x="408" y="-10"/>
      <point x="462" y="35"/>
      <point x="485" y="119" type="curve" smooth="yes"/>
      <point x="486" y="124"/>
      <point x="485" y="128"/>
      <point x="480" y="128" type="curve" smooth="yes"/>
      <point x="477" y="128"/>
      <point x="473" y="125"/>
      <point x="472" y="122" type="curve" smooth="yes"/>
      <point x="444" y="76"/>
      <point x="423" y="60"/>
      <point x="377" y="60" type="curve" smooth="yes"/>
      <point x="317" y="60"/>
      <point x="268" y="121"/>
      <point x="190" y="121" type="curve" smooth="yes"/>
      <point x="122" y="121"/>
      <point x="74" y="67"/>
      <point x="59" y="10" type="curve"/>
      <point x="62" y="10" type="line"/>
      <point x="86" y="100"/>
      <point x="136" y="168"/>
      <point x="287" y="244" type="curve" smooth="yes"/>
      <point x="478" y="340"/>
      <point x="545" y="406"/>
      <point x="570" y="499" type="curve" smooth="yes"/>
      <point x="593" y="585"/>
      <point x="544" y="650"/>
      <point x="435" y="650" type="curve" smooth="yes"/>
      <point x="313" y="650"/>
      <point x="212" y="567"/>
      <point x="196" y="509" type="curve" smooth="yes"/>
      <point x="187" y="473"/>
      <point x="200" y="454"/>
      <point x="229" y="454" type="curve" smooth="yes"/>
      <point x="255" y="454"/>
      <point x="281" y="477"/>
      <point x="289" y="509" type="curve" smooth="yes"/>
      <point x="295" y="529" type="line" smooth="yes"/>
      <point x="313" y="598"/>
      <point x="352" y="635"/>
      <point x="415" y="635" type="curve" smooth="yes"/>
      <point x="474" y="635"/>
      <point x="513" y="588"/>
      <point x="489" y="500" type="curve" smooth="yes"/>
      <point x="461" y="394"/>
      <point x="399" y="329"/>
    </contour>
  </outline>
</glyph>
<glyph name="three" format="2">
  <advance width="443"/>
  <unicode hex="0033"/>
  <outline>
    <contour>
      <point x="266" y="335" type="line"/>
      <point x="562" y="604" type="line" smooth="yes"/>
      <point x="571" y="612"/>
      <point x="581" y="622"/>
      <point x="583" y="631" type="curve" smooth="yes"/>
      <point x="584" y="636"/>
      <point x="579" y="640"/>
      <point x="574" y="640" type="curve" smooth="yes"/>
      <point x="249" y="640" type="line" smooth="yes"/>
      <point x="242" y="640"/>
      <point x="235" y="635"/>
      <point x="232" y="628" type="curve" smooth="yes"/>
      <point x="180" y="507" type="line" smooth="yes"/>
      <point x="175" y="497"/>
      <point x="179" y="493"/>
      <point x="183" y="493" type="curve" smooth="yes"/>
      <point x="187" y="493"/>
      <point x="192" y="496"/>
      <point x="193" y="498" type="curve" smooth="yes"/>
      <point x="242" y="562" type="line" smooth="yes"/>
      <point x="253" y="577"/>
      <point x="265" y="583"/>
      <point x="280" y="583" type="curve" smooth="yes"/>
      <point x="525" y="583" type="line"/>
      <point x="526" y="598" type="line"/>
      <point x="250" y="344" type="line" smooth="yes"/>
      <point x="246" y="341"/>
      <point x="244" y="338"/>
      <point x="243" y="335" type="curve" smooth="yes"/>
      <point x="241" y="330"/>
      <point x="245" y="326"/>
      <point x="253" y="326" type="curve" smooth="yes"/>
      <point x="283" y="326" type="line" smooth="yes"/>
      <point x="371" y="326"/>
      <point x="416" y="272"/>
      <point x="385" y="156" type="curve" smooth="yes"/>
      <point x="363" y="73"/>
      <point x="295" y="5"/>
      <point x="224" y="4" type="curve" smooth="yes"/>
      <point x="162" y="3"/>
      <point x="141" y="44"/>
      <point x="154" y="94" type="curve" smooth="yes"/>
      <point x="161" y="120" type="line" smooth="yes"/>
      <point x="169" y="151"/>
      <point x="154" y="173"/>
      <point x="128" y="173" type="curve" smooth="yes"/>
      <point x="100" y="173"/>
      <point x="71" y="151"/>
      <point x="64" y="122" type="curve" smooth="yes"/>
      <point x="44" y="49"/>
      <point x="86" y="-10"/>
      <point x="205" y="-10" type="curve" smooth="yes"/>
      <point x="319" y="-10"/>
      <point x="431" y="73"/>
      <point x="459" y="180" type="curve" smooth="yes"/>
      <point x="490" y="294"/>
      <point x="423" y="342"/>
      <point x="298" y="342" type="curve" smooth="yes"/>
      <point x="291" y="342"/>
      <point x="276" y="342"/>
      <point x="267" y="342" type="curve"/>
    </contour>
  </outline>
</glyph>
<glyph name="seven" format="2">
  <advance width="410"/>
  <unicode hex="0037"/>
  <outline>
    <contour>
      <point x="483" y="557" type="curve"/>
      <point x="281" y="320" type="line" smooth="yes"/>
      <point x="181" y="202"/>
      <point x="143" y="121"/>
      <point x="143" y="48" type="curve" smooth="yes"/>
      <point x="143" y="8"/>
      <point x="160" y="-10"/>
      <point x="188" y="-10" type="curve" smooth="yes"/>
      <point x="225" y="-10"/>
      <point x="254" y="22"/>
      <point x="254" y="66" type="curve" smooth="yes"/>
      <point x="254" y="91"/>
      <point x="244" y="116"/>
      <point x="244" y="145" type="curve" smooth="yes"/>
      <point x="244" y="213"/>
      <point x="285" y="293"/>
      <point x="403" y="429" type="curve" smooth="yes"/>
      <point x="554" y="604" type="line" smooth="yes"/>
      <point x="564" y="615"/>
      <point x="575" y="626"/>
      <point x="575" y="632" type="curve" smooth="yes"/>
      <point x="575" y="637"/>
      <point x="572" y="640"/>
      <point x="566" y="640" type="curve" smooth="yes"/>
      <point x="240" y="640" type="line" smooth="yes"/>
      <point x="233" y="640"/>
      <point x="226" y="635"/>
      <point x="223" y="628" type="curve" smooth="yes"/>
      <point x="171" y="507" type="line" smooth="yes"/>
      <point x="169" y="504"/>
      <point x="169" y="501"/>
      <point x="169" y="499" type="curve" smooth="yes"/>
      <point x="169" y="495"/>
      <point x="171" y="494"/>
      <point x="173" y="493" type="curve" smooth="yes"/>
      <point x="174" y="493"/>
      <point x="174" y="493"/>
      <point x="175" y="493" type="curve" smooth="yes"/>
      <point x="178" y="493"/>
      <point x="182" y="495"/>
      <point x="184" y="498" type="curve" smooth="yes"/>
      <point x="233" y="562" type="line" smooth="yes"/>
      <point x="244" y="577"/>
      <point x="256" y="583"/>
      <point x="271" y="583" type="curve" smooth="yes"/>
      <point x="519" y="583" type="line"/>
      <point x="521" y="617" type="line"/>
      <point x="517" y="599"/>
      <point x="503" y="581"/>
    </contour>
  </outline>
</glyph>
<glyph name="at" format="2">
  <advance width="727"/>
  <unicode hex="0040"/>
  <outline>
    <contour>
      <point x="328" y="186" type="curve" smooth="yes"/>
      <point x="328" y="338"/>
      <point x="416" y="451"/>
      <point x="513" y="451" type="curve" smooth="yes"/>
      <point x="532" y="451"/>
      <point x="547" y="443"/>
      <point x="547" y="416" type="curve" smooth="yes"/>
      <point x="547" y="327"/>
      <point x="452" y="120"/>
      <point x="373" y="120" type="curve" smooth="yes"/>
      <point x="345" y="120"/>
      <point x="328" y="143"/>
    </contour>
    <contour>
      <point x="582" y="108" type="curve" smooth="yes"/>
      <point x="562" y="108"/>
      <point x="555" y="121"/>
      <point x="555" y="137" type="curve" smooth="yes"/>
      <point x="555" y="178"/>
      <point x="583" y="316"/>
      <point x="597" y="407" type="curve" smooth="yes"/>
      <point x="600" y="422"/>
      <point x="621" y="433"/>
      <point x="621" y="447" type="curve" smooth="yes"/>
      <point x="621" y="463"/>
      <point x="600" y="479"/>
      <point x="559" y="479" type="curve" smooth="yes"/>
      <point x="403" y="479"/>
      <point x="259" y="322"/>
      <point x="259" y="167" type="curve" smooth="yes"/>
      <point x="259" y="104"/>
      <point x="291" y="78"/>
      <point x="334" y="78" type="curve" smooth="yes"/>
      <point x="380" y="78"/>
      <point x="459" y="130"/>
      <point x="517" y="256" type="curve"/>
      <point x="503" y="236" type="line"/>
      <point x="505" y="205"/>
      <point x="488" y="153"/>
      <point x="488" y="127" type="curve" smooth="yes"/>
      <point x="488" y="96"/>
      <point x="507" y="78"/>
      <point x="539" y="78" type="curve" smooth="yes"/>
      <point x="650" y="78"/>
      <point x="775" y="217"/>
      <point x="775" y="418" type="curve" smooth="yes"/>
      <point x="775" y="561"/>
      <point x="710" y="655"/>
      <point x="572" y="655" type="curve" smooth="yes"/>
      <point x="322" y="655"/>
      <point x="104" y="369"/>
      <point x="104" y="131" type="curve" smooth="yes"/>
      <point x="104" y="-29"/>
      <point x="180" y="-118"/>
      <point x="331" y="-118" type="curve" smooth="yes"/>
      <point x="453" y="-118"/>
      <point x="561" y="-72"/>
      <point x="667" y="31" type="curve" smooth="yes"/>
      <point x="691" y="54"/>
      <point x="675" y="69"/>
      <point x="653" y="47" type="curve" smooth="yes"/>
      <point x="562" y="-44"/>
      <point x="457" y="-101"/>
      <point x="339" y="-101" type="curve" smooth="yes"/>
      <point x="201" y="-101"/>
      <point x="124" y="-24"/>
      <point x="124" y="136" type="curve" smooth="yes"/>
      <point x="124" y="350"/>
      <point x="337" y="638"/>
      <point x="568" y="638" type="curve" smooth="yes"/>
      <point x="690" y="638"/>
      <point x="755" y="550"/>
      <point x="755" y="414" type="curve" smooth="yes"/>
      <point x="755" y="223"/>
      <point x="639" y="108"/>
    </contour>
  </outline>
</glyph>
<glyph name="J" format="2">
  <advance width="290"/>
  <unicode hex="004A"/>
  <outline>
    <contour>
      <point x="352" y="632" type="curve" smooth="yes"/>
      <point x="358" y="654"/>
      <point x="369" y="664"/>
      <point x="388" y="669" type="curve" smooth="yes"/>
      <point x="443" y="682" type="line" smooth="yes"/>
      <point x="449" y="684"/>
      <point x="453" y="686"/>
      <point x="455" y="691" type="curve" smooth="yes"/>
      <point x="457" y="698"/>
      <point x="453" y="700"/>
      <point x="445" y="700" type="curve" smooth="yes"/>
      <point x="220" y="700" type="line" smooth="yes"/>
      <point x="213" y="700"/>
      <point x="209" y="698"/>
      <point x="208" y="693" type="curve" smooth="yes"/>
      <point x="207" y="689"/>
      <point x="211" y="686"/>
      <point x="218" y="684" type="curve" smooth="yes"/>
      <point x="258" y="672" type="line" smooth="yes"/>
      <point x="275" y="667"/>
      <point x="281" y="657"/>
      <point x="276" y="635" type="curve" smooth="yes"/>
      <point x="238.14091300153598" y="458.6848234071532"/>
      <point x="174" y="206"/>
      <point x="131" y="39" type="curve" smooth="yes"/>
      <point x="120.0" y="-4.0"/>
      <point x="137.0" y="-21"/>
      <point x="137" y="-68" type="curve" smooth="yes"/>
      <point x="137" y="-93"/>
      <point x="122" y="-106"/>
      <point x="102" y="-106" type="curve" smooth="yes"/>
      <point x="71" y="-106"/>
      <point x="43" y="-71"/>
      <point x="8" y="-71" type="curve" smooth="yes"/>
      <point x="-19" y="-71"/>
      <point x="-33" y="-88"/>
      <point x="-33" y="-107" type="curve" smooth="yes"/>
      <point x="-33" y="-136"/>
      <point x="-9" y="-161"/>
      <point x="36" y="-161" type="curve" smooth="yes"/>
      <point x="107" y="-161"/>
      <point x="168" y="-100"/>
      <point x="194" y="15" type="curve" smooth="yes"/>
      <point x="223" y="143"/>
      <point x="301" y="447"/>
    </contour>
  </outline>
</glyph>
<glyph name="O" format="2">
  <advance width="665"/>
  <unicode hex="004F"/>
  <anchor x="547" y="773" name="center"/>
  <outline>
    <contour>
      <point x="510" y="710" type="curve" smooth="yes"/>
      <point x="343" y="710"/>
      <point x="189" y="557"/>
      <point x="144" y="369" type="curve" smooth="yes"/>
      <point x="85" y="116"/>
      <point x="188" y="-10"/>
      <point x="342" y="-10" type="curve" smooth="yes"/>
      <point x="506" y="-10"/>
      <point x="659" y="121"/>
      <point x="710" y="336" type="curve" smooth="yes"/>
      <point x="764" y="564"/>
      <point x="659" y="710"/>
    </contour>
    <contour>
      <point x="571" y="123"/>
      <point x="457" y="13"/>
      <point x="345" y="13" type="curve" smooth="yes"/>
      <point x="232" y="13"/>
      <point x="173" y="117"/>
      <point x="223" y="349" type="curve" smooth="yes"/>
      <point x="265" y="543"/>
      <point x="388" y="691"/>
      <point x="510" y="691" type="curve" smooth="yes"/>
      <point x="612" y="691"/>
      <point x="685" y="582"/>
      <point x="629" y="356" type="curve" smooth="yes"/>
    </contour>
  </outline>
</glyph>
<glyph name="V" format="2">
  <advance width="549"/>
  <unicode hex="0056"/>
  <outline>
    <contour>
      <point x="548" y="692" type="curve" smooth="yes"/>
      <point x="548" y="688"/>
      <point x="550" y="685"/>
      <point x="556" y="682" type="curve" smooth="yes"/>
      <point x="590" y="667" type="line" smooth="yes"/>
      <point x="610.9324296651197" y="657.765104559506"/>
      <point x="619.0" y="645.0"/>
      <point x="619" y="630" type="curve" smooth="yes"/>
      <point x="619" y="620"/>
      <point x="614" y="604"/>
      <point x="605" y="588" type="curve" smooth="yes"/>
      <point x="307" y="90" type="line"/>
      <point x="311" y="79" type="line"/>
      <point x="311" y="259"/>
      <point x="311" y="501"/>
      <point x="314" y="613" type="curve" smooth="yes"/>
      <point x="315" y="646"/>
      <point x="331" y="666"/>
      <point x="357" y="672" type="curve" smooth="yes"/>
      <point x="397" y="681" type="line" smooth="yes"/>
      <point x="405" y="683"/>
      <point x="412" y="685"/>
      <point x="412" y="691" type="curve" smooth="yes"/>
      <point x="412" y="697"/>
      <point x="404" y="700"/>
      <point x="395" y="700" type="curve" smooth="yes"/>
      <point x="199" y="700" type="line" smooth="yes"/>
      <point x="192.0" y="700.0"/>
      <point x="188.0" y="697.0"/>
      <point x="188" y="692" type="curve" smooth="yes"/>
      <point x="188" y="686"/>
      <point x="192" y="682"/>
      <point x="201" y="680" type="curve" smooth="yes"/>
      <point x="220.0" y="676.0"/>
      <point x="233" y="655"/>
      <point x="234" y="616" type="curve" smooth="yes"/>
      <point x="237" y="502"/>
      <point x="240" y="122"/>
      <point x="236" y="84" type="curve" smooth="yes"/>
      <point x="235" y="75"/>
      <point x="233" y="71"/>
      <point x="230" y="59" type="curve" smooth="yes"/>
      <point x="219" y="22" type="line" smooth="yes"/>
      <point x="215" y="9"/>
      <point x="222" y="0"/>
      <point x="233" y="0" type="curve" smooth="yes"/>
      <point x="289" y="0" type="line" smooth="yes"/>
      <point x="299" y="0"/>
      <point x="306" y="5"/>
      <point x="309" y="16" type="curve" smooth="yes"/>
      <point x="324" y="66" type="line" smooth="yes"/>
      <point x="329" y="83"/>
      <point x="335" y="96"/>
      <point x="342" y="108" type="curve" smooth="yes"/>
      <point x="634" y="590" type="line" smooth="yes"/>
      <point x="668.0289254688964" y="646.1710345068769"/>
      <point x="694.9633334629076" y="675.7038095608308"/>
      <point x="717" y="682" type="curve" smooth="yes"/>
      <point x="725.001647011107" y="684.1822673666657"/>
      <point x="727.0" y="687"/>
      <point x="727" y="691" type="curve" smooth="yes"/>
      <point x="727.0" y="698"/>
      <point x="723.0714285714286" y="700"/>
      <point x="716" y="700" type="curve" smooth="yes"/>
      <point x="559" y="700" type="line" smooth="yes"/>
      <point x="553" y="700"/>
      <point x="548" y="696"/>
    </contour>
  </outline>
</glyph>
<glyph name="W" format="2">
  <advance width="905"/>
  <unicode hex="0057"/>
  <anchor x="670" y="739" name="center"/>
  <outline>
    <contour>
      <point x="597" y="573" type="line"/>
      <point x="296" y="70" type="line"/>
      <point x="311" y="79" type="line"/>
      <point x="312.98502028463486" y="251.69676476323184"/>
      <point x="315" y="502"/>
      <point x="315" y="613" type="curve" smooth="yes"/>
      <point x="315.0" y="657.0"/>
      <point x="335" y="670.0"/>
      <point x="399" y="681" type="curve" smooth="yes"/>
      <point x="408" y="683"/>
      <point x="412.0" y="686.4545454545454"/>
      <point x="412" y="691" type="curve" smooth="yes"/>
      <point x="412.0" y="697"/>
      <point x="407.0" y="700.0"/>
      <point x="397" y="700" type="curve" smooth="yes"/>
      <point x="199" y="700" type="line" smooth="yes"/>
      <point x="192" y="700"/>
      <point x="188.0" y="697.0"/>
      <point x="188" y="692" type="curve" smooth="yes"/>
      <point x="188.0" y="686.5"/>
      <point x="191" y="683"/>
      <point x="199" y="681" type="curve" smooth="yes"/>
      <point x="220" y="676"/>
      <point x="232.9642914558062" y="653.0355477816202"/>
      <point x="234" y="623" type="curve" smooth="yes"/>
      <point x="238.21500256600697" y="445.96989222770685"/>
      <point x="241" y="197"/>
      <point x="236" y="90" type="curve" smooth="yes"/>
      <point x="235" y="72"/>
      <point x="218.0" y="30.584415584415588"/>
      <point x="218" y="15" type="curve" smooth="yes"/>
      <point x="218" y="6"/>
      <point x="222" y="0"/>
      <point x="235" y="0" type="curve" smooth="yes"/>
      <point x="289" y="0" type="line" smooth="yes"/>
      <point x="300" y="0.0"/>
      <point x="306" y="7"/>
      <point x="310" y="20" type="curve" smooth="yes"/>
      <point x="321.9762003511118" y="64.91075131666932"/>
      <point x="328.88965717344587" y="84.29673584518002"/>
      <point x="342" y="106" type="curve" smooth="yes"/>
      <point x="609" y="548" type="line"/>
    </contour>
    <contour>
      <point x="906" y="693" type="curve" smooth="yes"/>
      <point x="906.0" y="689.1818181818181"/>
      <point x="909" y="685"/>
      <point x="922" y="681" type="curve" smooth="yes"/>
      <point x="961" y="669"/>
      <point x="977.0" y="651.4736842105264"/>
      <point x="977" y="630" type="curve" smooth="yes"/>
      <point x="977.0" y="617.8125"/>
      <point x="971.7104620958243" y="602.9880837763202"/>
      <point x="961" y="585" type="curve" smooth="yes"/>
      <point x="649" y="61" type="line"/>
      <point x="669" y="79" type="line"/>
      <point x="665" y="210"/>
      <point x="671" y="487"/>
      <point x="671" y="601" type="curve" smooth="yes"/>
      <point x="671.0" y="656"/>
      <point x="691" y="671"/>
      <point x="751" y="680" type="curve" smooth="yes"/>
      <point x="765" y="682"/>
      <point x="769.0" y="686.6206896551724"/>
      <point x="769" y="692" type="curve" smooth="yes"/>
      <point x="769.0" y="696.8"/>
      <point x="765.8888888888889" y="700"/>
      <point x="755" y="700" type="curve" smooth="yes"/>
      <point x="557" y="700" type="line" smooth="yes"/>
      <point x="552" y="700"/>
      <point x="546.0" y="697.0"/>
      <point x="546" y="692" type="curve" smooth="yes"/>
      <point x="546.0" y="687.0"/>
      <point x="549.9407691052785" y="682.0148077236804"/>
      <point x="558" y="680" type="curve" smooth="yes"/>
      <point x="578.5516727910623" y="674.8620818022345"/>
      <point x="590.0336163860967" y="658.3780968572121"/>
      <point x="592" y="622" type="curve" smooth="yes"/>
      <point x="598.3088764728669" y="470.58696465119556"/>
      <point x="596.0" y="280.0"/>
      <point x="596" y="102" type="curve" smooth="yes"/>
      <point x="596.0" y="71.0"/>
      <point x="576.0" y="32"/>
      <point x="576" y="15" type="curve" smooth="yes"/>
      <point x="576.0" y="6.0"/>
      <point x="582" y="0"/>
      <point x="592" y="0" type="curve" smooth="yes"/>
      <point x="647" y="0" type="line" smooth="yes"/>
      <point x="656.4117647058823" y="0"/>
      <point x="663" y="5"/>
      <point x="667" y="17" type="curve" smooth="yes"/>
      <point x="681" y="64.0"/>
      <point x="690" y="90"/>
      <point x="699" y="105" type="curve" smooth="yes"/>
      <point x="994" y="593" type="line" smooth="yes"/>
      <point x="1031.6700962091886" y="655.3152777968952"/>
      <point x="1054.6347202390382" y="681.1410489420085"/>
      <point x="1072" y="685" type="curve" smooth="yes"/>
      <point x="1080.9586997877366" y="687.5596285107819"/>
      <point x="1085.0" y="689.8"/>
      <point x="1085" y="693" type="curve" smooth="yes"/>
      <point x="1085.0" y="697"/>
      <point x="1082" y="700"/>
      <point x="1075" y="700" type="curve" smooth="yes"/>
      <point x="915" y="700" type="line" smooth="yes"/>
      <point x="909.75" y="700"/>
      <point x="906.0" y="697.0"/>
    </contour>
  </outline>
</glyph>
<glyph name="backslash" format="2">
  <advance width="302"/>
  <unicode hex="005C"/>
  <outline>
    <contour>
      <point x="245" y="-77" type="curve" smooth="yes"/>
      <point x="242" y="-28"/>
      <point x="266" y="38"/>
      <point x="243" y="327" type="curve" smooth="yes"/>
      <point x="222" y="617"/>
      <point x="199" y="667"/>
      <point x="195" y="715" type="curve" smooth="yes"/>
      <point x="193" y="743"/>
      <point x="207" y="759"/>
      <point x="224" y="765" type="curve" smooth="yes"/>
      <point x="242" y="770"/>
      <point x="261" y="763"/>
      <point x="263" y="736" type="curve" smooth="yes"/>
      <point x="267" y="687"/>
      <point x="242" y="622"/>
      <point x="265" y="333" type="curve" smooth="yes"/>
      <point x="286" y="43"/>
      <point x="309" y="-8"/>
      <point x="313" y="-56" type="curve" smooth="yes"/>
      <point x="315" y="-83"/>
      <point x="301" y="-99"/>
      <point x="284" y="-105" type="curve" smooth="yes"/>
      <point x="266" y="-110"/>
      <point x="247" y="-103"/>
    </contour>
  </outline>
</glyph>
<glyph name="n" format="2">
  <advance width="440"/>
  <unicode hex="006E"/>
  <outline>
    <contour>
      <point x="51" y="337" type="curve" smooth="yes"/>
      <point x="52" y="337"/>
      <point x="55" y="339"/>
      <point x="56" y="343" type="curve" smooth="yes"/>
      <point x="67" y="383"/>
      <point x="93" y="402"/>
      <point x="114" y="402" type="curve" smooth="yes"/>
      <point x="125" y="402"/>
      <point x="132" y="391"/>
      <point x="132" y="380" type="curve" smooth="yes"/>
      <point x="132" y="361"/>
      <point x="128" y="343"/>
      <point x="118" y="317" type="curve" smooth="yes"/>
      <point x="19" y="63" type="line" smooth="yes"/>
      <point x="12" y="44"/>
      <point x="8" y="29"/>
      <point x="9" y="15" type="curve" smooth="yes"/>
      <point x="10" y="-2"/>
      <point x="19" y="-10"/>
      <point x="36" y="-10" type="curve" smooth="yes"/>
      <point x="65" y="-10"/>
      <point x="93" y="2"/>
      <point x="92" y="19" type="curve" smooth="yes"/>
      <point x="92" y="28"/>
      <point x="90" y="36"/>
      <point x="89" y="43" type="curve" smooth="yes"/>
      <point x="88" y="67"/>
      <point x="97" y="103"/>
      <point x="122" y="166" type="curve" smooth="yes"/>
      <point x="184" y="321"/>
      <point x="259" y="397"/>
      <point x="309" y="397" type="curve" smooth="yes"/>
      <point x="331" y="397"/>
      <point x="339" y="383"/>
      <point x="339" y="365" type="curve" smooth="yes"/>
      <point x="339" y="347"/>
      <point x="334" y="323"/>
      <point x="326" y="301" type="curve" smooth="yes"/>
      <point x="256" y="102" type="line" smooth="yes"/>
      <point x="246" y="72"/>
      <point x="241" y="53"/>
      <point x="241" y="33" type="curve" smooth="yes"/>
      <point x="241" y="12"/>
      <point x="259" y="-10"/>
      <point x="292" y="-10" type="curve" smooth="yes"/>
      <point x="347" y="-10"/>
      <point x="394" y="28"/>
      <point x="394" y="74" type="curve" smooth="yes"/>
      <point x="394" y="78"/>
      <point x="393" y="80"/>
      <point x="391" y="80" type="curve" smooth="yes"/>
      <point x="389" y="80"/>
      <point x="387" y="79"/>
      <point x="386" y="74" type="curve" smooth="yes"/>
      <point x="379" y="39"/>
      <point x="359" y="28"/>
      <point x="339" y="28" type="curve" smooth="yes"/>
      <point x="325" y="28"/>
      <point x="314" y="38"/>
      <point x="314" y="58" type="curve" smooth="yes"/>
      <point x="314" y="72"/>
      <point x="317" y="85"/>
      <point x="322" y="99" type="curve" smooth="yes"/>
      <point x="382" y="274" type="line" smooth="yes"/>
      <point x="397" y="317"/>
      <point x="409" y="344"/>
      <point x="409" y="382" type="curve" smooth="yes"/>
      <point x="409" y="418"/>
      <point x="394" y="440"/>
      <point x="360" y="440" type="curve" smooth="yes"/>
      <point x="287" y="440"/>
      <point x="203" y="371"/>
      <point x="121" y="205" type="curve"/>
      <point x="162" y="263" type="line"/>
      <point x="171" y="313"/>
      <point x="200" y="360"/>
      <point x="200" y="398" type="curve" smooth="yes"/>
      <point x="200" y="424"/>
      <point x="181" y="440"/>
      <point x="153" y="440" type="curve" smooth="yes"/>
      <point x="99" y="440"/>
      <point x="47" y="381"/>
      <point x="47" y="344" type="curve" smooth="yes"/>
      <point x="47" y="339"/>
      <point x="48" y="337"/>
    </contour>
  </outline>
</glyph>
<glyph name="braceleft" format="2">
  <advance width="388"/>
  <unicode hex="007B"/>
  <outline>
    <contour>
      <point x="248" y="289" type="curve" smooth="yes"/>
      <point x="249" y="292"/>
      <point x="251" y="294"/>
      <point x="254" y="294" type="curve" smooth="yes"/>
      <point x="309" y="294"/>
      <point x="359" y="335"/>
      <point x="370" y="395" type="curve" smooth="yes"/>
      <point x="384" y="469"/>
      <point x="344" y="528"/>
      <point x="357" y="602" type="curve" smooth="yes"/>
      <point x="371" y="688"/>
      <point x="437" y="736"/>
      <point x="505" y="736" type="curve" smooth="yes"/>
      <point x="548" y="736" type="line" smooth="yes"/>
      <point x="555" y="736"/>
      <point x="561" y="740"/>
      <point x="563" y="746" type="curve" smooth="yes"/>
      <point x="564" y="750"/>
      <point x="560" y="755"/>
      <point x="553" y="755" type="curve" smooth="yes"/>
      <point x="500" y="755" type="line" smooth="yes"/>
      <point x="400" y="755"/>
      <point x="311" y="692"/>
      <point x="289" y="600" type="curve" smooth="yes"/>
      <point x="264" y="503"/>
      <point x="332" y="438"/>
      <point x="312" y="359" type="curve" smooth="yes"/>
      <point x="304" y="325"/>
      <point x="271" y="307"/>
      <point x="235" y="307" type="curve" smooth="yes"/>
      <point x="206" y="307"/>
      <point x="193" y="329"/>
      <point x="172" y="329" type="curve" smooth="yes"/>
      <point x="153" y="329"/>
      <point x="133" y="311"/>
      <point x="128" y="290" type="curve" smooth="yes"/>
      <point x="123" y="269"/>
      <point x="134" y="253"/>
      <point x="155" y="253" type="curve" smooth="yes"/>
      <point x="175" y="253"/>
      <point x="198" y="273"/>
      <point x="227" y="273" type="curve" smooth="yes"/>
      <point x="266" y="273"/>
      <point x="286" y="251"/>
      <point x="277" y="216" type="curve" smooth="yes"/>
      <point x="258" y="141"/>
      <point x="156" y="76"/>
      <point x="129" y="-30" type="curve" smooth="yes"/>
      <point x="107" y="-120"/>
      <point x="165" y="-185"/>
      <point x="269" y="-185" type="curve" smooth="yes"/>
      <point x="311" y="-185" type="line" smooth="yes"/>
      <point x="318" y="-185"/>
      <point x="325" y="-182"/>
      <point x="326" y="-175" type="curve" smooth="yes"/>
      <point x="328" y="-168"/>
      <point x="324" y="-165"/>
      <point x="316" y="-165" type="curve" smooth="yes"/>
      <point x="274" y="-165" type="line" smooth="yes"/>
      <point x="203" y="-165"/>
      <point x="174" y="-110"/>
      <point x="200" y="-28" type="curve" smooth="yes"/>
      <point x="222" y="43"/>
      <point x="294" y="113"/>
      <point x="317" y="181" type="curve" smooth="yes"/>
      <point x="336" y="238"/>
      <point x="312" y="284"/>
      <point x="253" y="284" type="curve" smooth="yes"/>
      <point x="250" y="284"/>
      <point x="247" y="286"/>
    </contour>
  </outline>
</glyph>
<glyph name="bar" format="2">
  <advance width="270"/>
  <unicode hex="007C"/>
  <outline>
    <contour>
      <point x="48" y="-210" type="curve" smooth="yes"/>
      <point x="41" y="-238"/>
      <point x="55" y="-250"/>
      <point x="73" y="-250" type="curve" smooth="yes"/>
      <point x="89" y="-250"/>
      <point x="107" y="-238"/>
      <point x="114" y="-210" type="curve" smooth="yes"/>
      <point x="129" y="-153"/>
      <point x="127" y="-86"/>
      <point x="213" y="257" type="curve" smooth="yes"/>
      <point x="298" y="601"/>
      <point x="346" y="667"/>
      <point x="360" y="724" type="curve" smooth="yes"/>
      <point x="367" y="753"/>
      <point x="353" y="765"/>
      <point x="335" y="765" type="curve" smooth="yes"/>
      <point x="319" y="765"/>
      <point x="301" y="753"/>
      <point x="294" y="724" type="curve" smooth="yes"/>
      <point x="280" y="667"/>
      <point x="278" y="602"/>
      <point x="193" y="257" type="curve" smooth="yes"/>
      <point x="107" y="-86"/>
      <point x="63" y="-153"/>
    </contour>
  </outline>
</glyph>
<glyph name="yen" format="2">
  <advance width="535"/>
  <unicode hex="00A5"/>
  <outline>
    <contour>
      <point x="133" y="224" type="curve" smooth="yes"/>
      <point x="111" y="224"/>
      <point x="98" y="211"/>
      <point x="95" y="198" type="curve" smooth="yes"/>
      <point x="91" y="185"/>
      <point x="98" y="172"/>
      <point x="120" y="172" type="curve" smooth="yes"/>
      <point x="143" y="172"/>
      <point x="193" y="190"/>
      <point x="322" y="190" type="curve" smooth="yes"/>
      <point x="450" y="190"/>
      <point x="491" y="172"/>
      <point x="513" y="172" type="curve" smooth="yes"/>
      <point x="535" y="172"/>
      <point x="547" y="185"/>
      <point x="551" y="198" type="curve" smooth="yes"/>
      <point x="554" y="211"/>
      <point x="548" y="224"/>
      <point x="526" y="224" type="curve" smooth="yes"/>
      <point x="504" y="224"/>
      <point x="454" y="206"/>
      <point x="326" y="206" type="curve" smooth="yes"/>
      <point x="197" y="206"/>
      <point x="156" y="224"/>
    </contour>
    <contour>
      <point x="161" y="336" type="curve" smooth="yes"/>
      <point x="139" y="336"/>
      <point x="126" y="323"/>
      <point x="123" y="310" type="curve" smooth="yes"/>
      <point x="119" y="297"/>
      <point x="126" y="284"/>
      <point x="148" y="284" type="curve" smooth="yes"/>
      <point x="168" y="284"/>
      <point x="206" y="296"/>
      <point x="296" y="301" type="curve"/>
      <point x="301" y="319" type="line"/>
      <point x="213" y="324"/>
      <point x="181" y="336"/>
    </contour>
    <contour>
      <point x="402" y="302" type="line"/>
      <point x="476" y="298"/>
      <point x="524" y="284"/>
      <point x="541" y="284" type="curve" smooth="yes"/>
      <point x="563" y="284"/>
      <point x="575" y="297"/>
      <point x="579" y="310" type="curve" smooth="yes"/>
      <point x="582" y="323"/>
      <point x="576" y="336"/>
      <point x="554" y="336" type="curve" smooth="yes"/>
      <point x="537" y="336"/>
      <point x="483" y="322"/>
      <point x="407" y="318" type="curve"/>
    </contour>
    <component base="Y" xScale="0.9135172474836407" yScale="0.9135172474836407" xOffset="18"/>
  </outline>
</glyph>
<glyph name="copyright" format="2">
  <advance width="709"/>
  <unicode hex="00A9"/>
  <outline>
    <contour>
      <point x="363" y="-15" type="curve" smooth="yes"/>
      <point x="217" y="-15"/>
      <point x="116" y="82"/>
      <point x="116" y="221" type="curve" smooth="yes"/>
      <point x="116" y="456"/>
      <point x="285" y="649"/>
      <point x="511" y="649" type="curve" smooth="yes"/>
      <point x="659" y="649"/>
      <point x="761" y="549"/>
      <point x="761" y="404" type="curve" smooth="yes"/>
      <point x="761" y="168"/>
      <point x="590" y="-15"/>
    </contour>
    <contour>
      <point x="363" y="4" type="curve" smooth="yes"/>
      <point x="577" y="4"/>
      <point x="738" y="180"/>
      <point x="738" y="402" type="curve" smooth="yes"/>
      <point x="738" y="537"/>
      <point x="644" y="631"/>
      <point x="509" y="631" type="curve" smooth="yes"/>
      <point x="298" y="631"/>
      <point x="140" y="444"/>
      <point x="140" y="226" type="curve" smooth="yes"/>
      <point x="140" y="94"/>
      <point x="232" y="4"/>
    </contour>
    <contour>
      <point x="572" y="231" type="curve" smooth="yes"/>
      <point x="573" y="237"/>
      <point x="567" y="240"/>
      <point x="563" y="238" type="curve" smooth="yes"/>
      <point x="560" y="237"/>
      <point x="557" y="234"/>
      <point x="552" y="227" type="curve" smooth="yes"/>
      <point x="516" y="173"/>
      <point x="477" y="148"/>
      <point x="429" y="148" type="curve" smooth="yes"/>
      <point x="374" y="148"/>
      <point x="338" y="198"/>
      <point x="338" y="281" type="curve" smooth="yes"/>
      <point x="338" y="393"/>
      <point x="415" y="502"/>
      <point x="504" y="502" type="curve" smooth="yes"/>
      <point x="549" y="502"/>
      <point x="579" y="480"/>
      <point x="591" y="441" type="curve" smooth="yes"/>
      <point x="598" y="418" type="line" smooth="yes"/>
      <point x="600" y="411"/>
      <point x="602" y="409"/>
      <point x="606" y="409" type="curve" smooth="yes"/>
      <point x="610" y="409"/>
      <point x="612" y="412"/>
      <point x="612" y="416" type="curve" smooth="yes"/>
      <point x="613" y="516" type="line" smooth="yes"/>
      <point x="613" y="520"/>
      <point x="610" y="522"/>
      <point x="606" y="522" type="curve" smooth="yes"/>
      <point x="597" y="522"/>
      <point x="590" y="502"/>
      <point x="580" y="502" type="curve" smooth="yes"/>
      <point x="566" y="502"/>
      <point x="547" y="522"/>
      <point x="493" y="522" type="curve" smooth="yes"/>
      <point x="374" y="522"/>
      <point x="267" y="387"/>
      <point x="267" y="253" type="curve" smooth="yes"/>
      <point x="267" y="168"/>
      <point x="317" y="112"/>
      <point x="393" y="112" type="curve" smooth="yes"/>
      <point x="467" y="112"/>
      <point x="530" y="157"/>
      <point x="568" y="220" type="curve" smooth="yes"/>
      <point x="571" y="225"/>
      <point x="572" y="228"/>
    </contour>
  </outline>
</glyph>
<glyph name="logicalnot" format="2">
  <advance width="508"/>
  <unicode hex="00AC"/>
  <outline>
    <contour>
      <point x="459" y="184" type="curve" smooth="yes"/>
      <point x="476" y="184"/>
      <point x="490" y="195"/>
      <point x="495" y="214" type="curve" smooth="yes"/>
      <point x="543" y="393" type="line" smooth="yes"/>
      <point x="548" y="409"/>
      <point x="540" y="419"/>
      <point x="525" y="419" type="curve" smooth="yes"/>
      <point x="506" y="419"/>
      <point x="490" y="408"/>
      <point x="486" y="393" type="curve" smooth="yes"/>
      <point x="439" y="215" type="line" smooth="yes"/>
      <point x="434" y="197"/>
      <point x="442" y="184"/>
    </contour>
    <component base="minus" xOffset="14" yOffset="90"/>
    <component base="minus" xOffset="14" yOffset="90"/>
  </outline>
</glyph>
<glyph name="registered" format="2">
  <advance width="752"/>
  <unicode hex="00AE"/>
  <outline>
    <contour>
      <point x="363" y="-15" type="curve" smooth="yes"/>
      <point x="217" y="-15"/>
      <point x="116" y="82"/>
      <point x="116" y="221" type="curve" smooth="yes"/>
      <point x="116" y="456"/>
      <point x="285" y="649"/>
      <point x="511" y="649" type="curve" smooth="yes"/>
      <point x="659" y="649"/>
      <point x="761" y="549"/>
      <point x="761" y="404" type="curve" smooth="yes"/>
      <point x="761" y="168"/>
      <point x="590" y="-15"/>
    </contour>
    <contour>
      <point x="363" y="4" type="curve" smooth="yes"/>
      <point x="577" y="4"/>
      <point x="738" y="180"/>
      <point x="738" y="402" type="curve" smooth="yes"/>
      <point x="738" y="537"/>
      <point x="644" y="631"/>
      <point x="509" y="631" type="curve" smooth="yes"/>
      <point x="298" y="631"/>
      <point x="140" y="444"/>
      <point x="140" y="226" type="curve" smooth="yes"/>
      <point x="140" y="94"/>
      <point x="232" y="4"/>
    </contour>
    <contour>
      <point x="362" y="304" type="move"/>
      <point x="376" y="295"/>
      <point x="397" y="287"/>
      <point x="417" y="287" type="curve" smooth="yes"/>
      <point x="522" y="287"/>
      <point x="602" y="339"/>
      <point x="602" y="424" type="curve" smooth="yes"/>
      <point x="602" y="481"/>
      <point x="555" y="526"/>
      <point x="484" y="526" type="curve" smooth="yes"/>
      <point x="357" y="526" type="line" smooth="yes"/>
      <point x="351" y="526"/>
      <point x="347" y="524"/>
      <point x="347" y="520" type="curve" smooth="yes"/>
      <point x="347" y="517"/>
      <point x="349" y="517"/>
      <point x="355" y="516" type="curve" smooth="yes"/>
      <point x="373" y="510" type="line" smooth="yes"/>
      <point x="384" y="507"/>
      <point x="387" y="500"/>
      <point x="384" y="484" type="curve" smooth="yes"/>
      <point x="364" y="387"/>
      <point x="337" y="285"/>
      <point x="304" y="174" type="curve" smooth="yes"/>
      <point x="299" y="161"/>
      <point x="291" y="152"/>
      <point x="279" y="149" type="curve" smooth="yes"/>
      <point x="253" y="144" type="line" smooth="yes"/>
      <point x="248" y="143"/>
      <point x="245" y="142"/>
      <point x="245" y="139" type="curve" smooth="yes"/>
      <point x="245" y="136"/>
      <point x="246" y="133"/>
      <point x="251" y="133" type="curve" smooth="yes"/>
      <point x="376" y="133" type="line" smooth="yes"/>
      <point x="384" y="133"/>
      <point x="389" y="135"/>
      <point x="389" y="139" type="curve" smooth="yes"/>
      <point x="389" y="142"/>
      <point x="388" y="143"/>
      <point x="384" y="143" type="curve" smooth="yes"/>
      <point x="363" y="149" type="line" smooth="yes"/>
      <point x="352" y="152"/>
      <point x="348" y="160"/>
      <point x="352" y="174" type="curve" smooth="yes"/>
      <point x="381" y="295"/>
      <point x="402" y="392"/>
      <point x="430" y="479" type="curve" smooth="yes"/>
      <point x="438" y="504"/>
      <point x="452" y="516"/>
      <point x="477" y="516" type="curve" smooth="yes"/>
      <point x="527" y="516"/>
      <point x="557" y="480"/>
      <point x="557" y="430" type="curve" smooth="yes"/>
      <point x="557" y="348"/>
      <point x="499" y="299"/>
      <point x="419" y="299" type="curve" smooth="yes"/>
      <point x="397" y="299"/>
      <point x="376" y="306"/>
      <point x="367" y="312" type="curve" smooth="yes"/>
    </contour>
    <contour>
      <point x="427" y="291" type="line"/>
      <point x="456" y="199" type="line" smooth="yes"/>
      <point x="473" y="145"/>
      <point x="488" y="128"/>
      <point x="512" y="128" type="curve" smooth="yes"/>
      <point x="537" y="128"/>
      <point x="564" y="150"/>
      <point x="564" y="168" type="curve" smooth="yes"/>
      <point x="564" y="171"/>
      <point x="562" y="172"/>
      <point x="560" y="172" type="curve" smooth="yes"/>
      <point x="552" y="172"/>
      <point x="550" y="159"/>
      <point x="538" y="159" type="curve" smooth="yes"/>
      <point x="523" y="159"/>
      <point x="510" y="168"/>
      <point x="495" y="208" type="curve" smooth="yes"/>
      <point x="464" y="297" type="line"/>
    </contour>
  </outline>
</glyph>
<glyph name="twosuperior" format="2">
  <advance width="318"/>
  <unicode hex="00B2"/>
  <outline>
    <contour>
      <point x="265" y="464" type="curve" smooth="yes"/>
      <point x="180" y="411"/>
      <point x="138" y="369"/>
      <point x="124" y="313" type="curve" smooth="yes"/>
      <point x="124" y="312"/>
      <point x="123" y="311"/>
      <point x="123" y="310" type="curve" smooth="yes"/>
      <point x="123" y="305"/>
      <point x="127" y="302"/>
      <point x="133" y="302" type="curve" smooth="yes"/>
      <point x="145" y="302"/>
      <point x="162" y="344"/>
      <point x="185" y="344" type="curve" smooth="yes"/>
      <point x="224" y="344"/>
      <point x="243" y="300"/>
      <point x="287" y="300" type="curve" smooth="yes"/>
      <point x="336" y="300"/>
      <point x="369" y="338"/>
      <point x="381" y="385" type="curve" smooth="yes"/>
      <point x="382" y="388"/>
      <point x="382" y="391"/>
      <point x="382" y="392" type="curve" smooth="yes"/>
      <point x="382" y="395"/>
      <point x="380" y="398"/>
      <point x="375" y="398" type="curve" smooth="yes"/>
      <point x="371" y="398"/>
      <point x="368" y="396"/>
      <point x="362" y="388" type="curve" smooth="yes"/>
      <point x="345" y="364"/>
      <point x="335" y="357"/>
      <point x="309" y="357" type="curve" smooth="yes"/>
      <point x="285" y="357"/>
      <point x="257" y="389"/>
      <point x="219" y="389" type="curve" smooth="yes"/>
      <point x="185" y="389"/>
      <point x="156" y="364"/>
      <point x="149" y="336" type="curve"/>
      <point x="155" y="336" type="line"/>
      <point x="174" y="378"/>
      <point x="191" y="404"/>
      <point x="273" y="449" type="curve" smooth="yes"/>
      <point x="384" y="510"/>
      <point x="414" y="544"/>
      <point x="414" y="591" type="curve" smooth="yes"/>
      <point x="414" y="622"/>
      <point x="385" y="650"/>
      <point x="330" y="650" type="curve" smooth="yes"/>
      <point x="258" y="650"/>
      <point x="194" y="600"/>
      <point x="194" y="556" type="curve" smooth="yes"/>
      <point x="194" y="540"/>
      <point x="203" y="532"/>
      <point x="220" y="532" type="curve" smooth="yes"/>
      <point x="237" y="532"/>
      <point x="252" y="546"/>
      <point x="257" y="564" type="curve" smooth="yes"/>
      <point x="262" y="583" type="line" smooth="yes"/>
      <point x="271" y="617"/>
      <point x="288" y="635"/>
      <point x="322" y="635" type="curve" smooth="yes"/>
      <point x="345" y="635"/>
      <point x="360" y="623"/>
      <point x="360" y="598" type="curve" smooth="yes"/>
      <point x="360" y="555"/>
      <point x="336" y="508"/>
    </contour>
  </outline>
</glyph>
<glyph name="dcroat" format="2">
  <advance width="416"/>
  <unicode hex="0111"/>
  <outline>
    <contour>
      <point x="356" y="539" type="curve" smooth="yes"/>
      <point x="356.0" y="535.0"/>
      <point x="360.0" y="531.0"/>
      <point x="367" y="531" type="curve" smooth="yes"/>
      <point x="563" y="531" type="line" smooth="yes"/>
      <point x="569" y="531"/>
      <point x="574.0" y="535.0"/>
      <point x="574" y="539" type="curve" smooth="yes"/>
      <point x="574.0" y="543.0"/>
      <point x="570" y="547"/>
      <point x="563" y="547" type="curve" smooth="yes"/>
      <point x="367" y="547" type="line" smooth="yes"/>
      <point x="360.0" y="547.0"/>
      <point x="356.0" y="543.0"/>
    </contour>
    <component base="d"/>
  </outline>
</glyph>
<glyph name="hbar" format="2">
  <advance width="430"/>
  <unicode hex="0127"/>
  <outline>
    <contour>
      <point x="164" y="539" type="curve" smooth="yes"/>
      <point x="164.0" y="543.0"/>
      <point x="168" y="547"/>
      <point x="175" y="547" type="curve" smooth="yes"/>
      <point x="418" y="547" type="line" smooth="yes"/>
      <point x="425.0" y="547.0"/>
      <point x="429.0" y="543.0"/>
      <point x="429" y="539" type="curve" smooth="yes"/>
      <point x="429.0" y="535.0"/>
      <point x="424.0" y="531.0"/>
      <point x="418" y="531" type="curve" smooth="yes"/>
      <point x="175" y="531" type="line" smooth="yes"/>
      <point x="168" y="531"/>
      <point x="164.0" y="535.0"/>
    </contour>
    <component base="h"/>
  </outline>
</glyph>
<glyph name="kra" format="2">
  <advance width="431"/>
  <unicode hex="0138"/>
  <outline>
    <contour>
      <point x="187" y="166" type="curve" smooth="yes"/>
      <point x="160" y="103"/>
      <point x="156" y="93"/>
      <point x="156" y="75" type="curve" smooth="yes"/>
      <point x="156" y="52"/>
      <point x="159" y="42"/>
      <point x="159" y="27" type="curve" smooth="yes"/>
      <point x="159" y="4"/>
      <point x="130" y="-10"/>
      <point x="97" y="-10" type="curve" smooth="yes"/>
      <point x="83" y="-10"/>
      <point x="74" y="0"/>
      <point x="74" y="18" type="curve" smooth="yes"/>
      <point x="74" y="34"/>
      <point x="77" y="51"/>
      <point x="87" y="75" type="curve" smooth="yes"/>
      <point x="183" y="317" type="line" smooth="yes"/>
      <point x="193" y="343"/>
      <point x="197" y="361"/>
      <point x="197" y="380" type="curve" smooth="yes"/>
      <point x="197" y="391"/>
      <point x="190" y="402"/>
      <point x="179" y="402" type="curve" smooth="yes"/>
      <point x="158" y="402"/>
      <point x="132" y="383"/>
      <point x="121" y="343" type="curve" smooth="yes"/>
      <point x="120" y="339"/>
      <point x="118" y="337"/>
      <point x="116" y="337" type="curve" smooth="yes"/>
      <point x="113" y="337"/>
      <point x="112" y="339"/>
      <point x="112" y="344" type="curve" smooth="yes"/>
      <point x="112" y="381"/>
      <point x="164" y="440"/>
      <point x="218" y="440" type="curve" smooth="yes"/>
      <point x="246" y="440"/>
      <point x="265" y="424"/>
      <point x="265" y="398" type="curve" smooth="yes"/>
      <point x="265" y="364"/>
      <point x="248" y="310"/>
    </contour>
    <contour>
      <point x="138" y="97" type="line"/>
      <point x="134" y="103" type="line"/>
      <point x="295" y="294" type="line" smooth="yes"/>
      <point x="381" y="396"/>
      <point x="424" y="440"/>
      <point x="460" y="440" type="curve" smooth="yes"/>
      <point x="493" y="440"/>
      <point x="507" y="425"/>
      <point x="507" y="402" type="curve" smooth="yes"/>
      <point x="507" y="380"/>
      <point x="488" y="362"/>
      <point x="460" y="362" type="curve" smooth="yes"/>
      <point x="436" y="362"/>
      <point x="424" y="372"/>
      <point x="395" y="372" type="curve" smooth="yes"/>
      <point x="376" y="372"/>
      <point x="340" y="322"/>
      <point x="312" y="290" type="curve" smooth="yes"/>
    </contour>
    <contour>
      <point x="229" y="204" type="curve"/>
      <point x="264" y="257" type="line"/>
      <point x="309" y="103"/>
      <point x="355" y="37"/>
      <point x="388" y="37" type="curve" smooth="yes"/>
      <point x="427" y="37"/>
      <point x="431" y="83"/>
      <point x="439" y="83" type="curve" smooth="yes"/>
      <point x="441" y="83"/>
      <point x="442" y="82"/>
      <point x="442" y="79" type="curve" smooth="yes"/>
      <point x="435" y="31"/>
      <point x="398" y="-15"/>
      <point x="348" y="-15" type="curve" smooth="yes"/>
      <point x="304" y="-15"/>
      <point x="259" y="32"/>
    </contour>
  </outline>
</glyph>
<glyph name="Lslash" format="2">
  <advance width="475"/>
  <unicode hex="0141"/>
  <outline>
    <contour>
      <point x="104" y="260" type="curve" smooth="yes"/>
      <point x="107" y="253"/>
      <point x="114" y="253"/>
      <point x="122" y="257" type="curve" smooth="yes"/>
      <point x="440" y="407" type="line" smooth="yes"/>
      <point x="448" y="411"/>
      <point x="453" y="416"/>
      <point x="450" y="422" type="curve" smooth="yes"/>
      <point x="447" y="429"/>
      <point x="440" y="429"/>
      <point x="432" y="425" type="curve" smooth="yes"/>
      <point x="114" y="275" type="line" smooth="yes"/>
      <point x="106" y="271"/>
      <point x="101" y="266"/>
    </contour>
    <component base="L"/>
  </outline>
</glyph>
<glyph name="Eng" format="2">
  <advance width="587"/>
  <unicode hex="014A"/>
  <outline>
    <contour>
      <point x="459" y="143" type="curve" smooth="yes"/>
      <point x="479" y="93"/>
      <point x="485" y="61"/>
      <point x="485" y="9" type="curve" smooth="yes"/>
      <point x="485" y="-96"/>
      <point x="434" y="-193"/>
      <point x="387" y="-193" type="curve" smooth="yes"/>
      <point x="354" y="-193"/>
      <point x="336" y="-158"/>
      <point x="305" y="-158" type="curve" smooth="yes"/>
      <point x="281" y="-158"/>
      <point x="266" y="-171"/>
      <point x="266" y="-193" type="curve" smooth="yes"/>
      <point x="266" y="-220"/>
      <point x="293" y="-245"/>
      <point x="339" y="-245" type="curve" smooth="yes"/>
      <point x="405" y="-245"/>
      <point x="462" y="-191"/>
      <point x="503" y="-35" type="curve" smooth="yes"/>
      <point x="647" y="516" type="line" smooth="yes"/>
      <point x="672" y="613"/>
      <point x="772" y="614"/>
      <point x="772" y="684" type="curve" smooth="yes"/>
      <point x="772" y="704"/>
      <point x="761" y="714"/>
      <point x="737" y="714" type="curve" smooth="yes"/>
      <point x="700" y="714"/>
      <point x="668" y="685"/>
      <point x="648" y="606" type="curve" smooth="yes"/>
      <point x="525" y="127" type="line"/>
      <point x="545" y="140" type="line"/>
      <point x="478" y="281"/>
      <point x="406" y="457"/>
      <point x="315" y="685" type="curve" smooth="yes"/>
      <point x="311" y="696"/>
      <point x="305" y="700"/>
      <point x="296" y="700" type="curve" smooth="yes"/>
      <point x="228" y="700" type="line" smooth="yes"/>
      <point x="220" y="700"/>
      <point x="214" y="697"/>
      <point x="213" y="692" type="curve" smooth="yes"/>
      <point x="213" y="687"/>
      <point x="215" y="682"/>
      <point x="217" y="677" type="curve" smooth="yes"/>
      <point x="263" y="586" type="line" smooth="yes"/>
      <point x="267" y="579"/>
      <point x="267" y="574"/>
      <point x="264" y="564" type="curve" smooth="yes"/>
      <point x="133" y="82" type="line" smooth="yes"/>
      <point x="127" y="60"/>
      <point x="109" y="47"/>
      <point x="86" y="39" type="curve" smooth="yes"/>
      <point x="30" y="20" type="line" smooth="yes"/>
      <point x="19" y="16"/>
      <point x="16" y="13"/>
      <point x="16" y="8" type="curve" smooth="yes"/>
      <point x="16" y="4"/>
      <point x="21" y="0"/>
      <point x="28" y="0" type="curve" smooth="yes"/>
      <point x="215" y="0" type="line" smooth="yes"/>
      <point x="224" y="0"/>
      <point x="229" y="3"/>
      <point x="229" y="8" type="curve" smooth="yes"/>
      <point x="229" y="13"/>
      <point x="226" y="15"/>
      <point x="219" y="18" type="curve" smooth="yes"/>
      <point x="172" y="39" type="line" smooth="yes"/>
      <point x="158" y="45"/>
      <point x="149" y="57"/>
      <point x="155" y="80" type="curve" smooth="yes"/>
      <point x="290" y="577" type="line"/>
      <point x="278" y="568" type="line"/>
      <point x="363" y="379"/>
      <point x="432" y="212"/>
    </contour>
  </outline>
</glyph>
<glyph name="eng" format="2">
  <advance width="436"/>
  <unicode hex="014B"/>
  <outline>
    <contour>
      <point x="116" y="337" type="curve" smooth="yes"/>
      <point x="117" y="337"/>
      <point x="120" y="339"/>
      <point x="121" y="343" type="curve" smooth="yes"/>
      <point x="132" y="383"/>
      <point x="158" y="402"/>
      <point x="179" y="402" type="curve" smooth="yes"/>
      <point x="190" y="402"/>
      <point x="197" y="391"/>
      <point x="197" y="380" type="curve" smooth="yes"/>
      <point x="197" y="361"/>
      <point x="193" y="343"/>
      <point x="183" y="317" type="curve" smooth="yes"/>
      <point x="84" y="63" type="line" smooth="yes"/>
      <point x="77" y="44"/>
      <point x="73" y="29"/>
      <point x="74" y="15" type="curve" smooth="yes"/>
      <point x="75" y="-2"/>
      <point x="84" y="-10"/>
      <point x="101" y="-10" type="curve" smooth="yes"/>
      <point x="130" y="-10"/>
      <point x="158" y="2"/>
      <point x="157" y="19" type="curve" smooth="yes"/>
      <point x="157" y="28"/>
      <point x="155" y="36"/>
      <point x="154" y="43" type="curve" smooth="yes"/>
      <point x="153" y="67"/>
      <point x="162" y="103"/>
      <point x="187" y="166" type="curve" smooth="yes"/>
      <point x="249" y="321"/>
      <point x="324" y="397"/>
      <point x="374" y="397" type="curve" smooth="yes"/>
      <point x="396" y="397"/>
      <point x="404" y="383"/>
      <point x="404" y="365" type="curve" smooth="yes"/>
      <point x="404" y="347"/>
      <point x="398" y="323"/>
      <point x="391" y="301" type="curve" smooth="yes"/>
      <point x="310" y="47" type="line" smooth="yes"/>
      <point x="294" y="-4"/>
      <point x="288" y="-53"/>
      <point x="288" y="-145" type="curve" smooth="yes"/>
      <point x="288" y="-180"/>
      <point x="275" y="-198"/>
      <point x="255" y="-198" type="curve" smooth="yes"/>
      <point x="231" y="-198"/>
      <point x="209" y="-169"/>
      <point x="182" y="-169" type="curve" smooth="yes"/>
      <point x="159" y="-169"/>
      <point x="145" y="-186"/>
      <point x="145" y="-206" type="curve" smooth="yes"/>
      <point x="145" y="-228"/>
      <point x="166" y="-245"/>
      <point x="204" y="-245" type="curve" smooth="yes"/>
      <point x="258" y="-245"/>
      <point x="307" y="-203"/>
      <point x="333" y="-103" type="curve"/>
      <point x="349" y="-48"/>
      <point x="362" y="0"/>
      <point x="376" y="44" type="curve" smooth="yes"/>
      <point x="447" y="274" type="line" smooth="yes"/>
      <point x="462" y="322"/>
      <point x="474" y="361"/>
      <point x="474" y="393" type="curve" smooth="yes"/>
      <point x="474" y="419"/>
      <point x="458" y="440"/>
      <point x="425" y="440" type="curve" smooth="yes"/>
      <point x="366" y="440"/>
      <point x="300" y="395"/>
      <point x="234" y="291" type="curve"/>
      <point x="246" y="330"/>
      <point x="265" y="367"/>
      <point x="265" y="398" type="curve" smooth="yes"/>
      <point x="265" y="424"/>
      <point x="246" y="440"/>
      <point x="218" y="440" type="curve" smooth="yes"/>
      <point x="164" y="440"/>
      <point x="112" y="381"/>
      <point x="112" y="344" type="curve" smooth="yes"/>
      <point x="112" y="339"/>
      <point x="113" y="337"/>
    </contour>
  </outline>
</glyph>
<glyph name="Tbar" format="2">
  <advance width="513"/>
  <unicode hex="0166"/>
  <outline>
    <contour>
      <point x="160" y="348" type="curve" smooth="yes"/>
      <point x="160.0" y="342"/>
      <point x="166" y="338"/>
      <point x="175" y="338" type="curve" smooth="yes"/>
      <point x="561" y="338" type="line" smooth="yes"/>
      <point x="570.0" y="338.0"/>
      <point x="576.0" y="342"/>
      <point x="576" y="348" type="curve" smooth="yes"/>
      <point x="576.0" y="353"/>
      <point x="570.0" y="358.0"/>
      <point x="561" y="358" type="curve" smooth="yes"/>
      <point x="175" y="358" type="line" smooth="yes"/>
      <point x="166" y="358"/>
      <point x="160.0" y="353"/>
    </contour>
    <component base="T"/>
  </outline>
</glyph>
<glyph name="Schwa" format="2">
  <advance width="637"/>
  <unicode hex="018F"/>
  <outline>
    <contour>
      <point x="160" y="266"/>
      <point x="127" y="209"/>
      <point x="127" y="154" type="curve" smooth="yes"/>
      <point x="127" y="60"/>
      <point x="202" y="-11"/>
      <point x="321" y="-11" type="curve" smooth="yes"/>
      <point x="508" y="-11"/>
      <point x="697" y="195"/>
      <point x="697" y="463" type="curve" smooth="yes"/>
      <point x="697" y="617"/>
      <point x="610" y="710"/>
      <point x="490" y="710" type="curve" smooth="yes"/>
      <point x="370" y="710"/>
      <point x="272" y="638"/>
      <point x="207" y="521" type="curve" smooth="yes"/>
      <point x="202" y="512"/>
      <point x="200" y="506"/>
      <point x="200" y="500" type="curve" smooth="yes"/>
      <point x="200" y="495"/>
      <point x="202" y="492"/>
      <point x="206" y="492" type="curve" smooth="yes"/>
      <point x="212" y="492"/>
      <point x="214" y="496"/>
      <point x="224" y="512" type="curve" smooth="yes"/>
      <point x="295" y="626"/>
      <point x="366" y="664"/>
      <point x="437" y="664" type="curve" smooth="yes"/>
      <point x="543" y="664"/>
      <point x="615" y="570"/>
      <point x="615" y="413" type="curve" smooth="yes"/>
      <point x="615" y="205"/>
      <point x="490" y="8"/>
      <point x="330" y="8" type="curve" smooth="yes"/>
      <point x="251" y="8"/>
      <point x="207" y="58"/>
      <point x="207" y="140" type="curve" smooth="yes"/>
      <point x="207" y="207"/>
      <point x="242" y="246"/>
      <point x="276" y="246" type="curve" smooth="yes"/>
      <point x="623" y="246" type="line"/>
      <point x="627" y="266" type="line"/>
      <point x="209" y="266" type="line" smooth="yes"/>
    </contour>
  </outline>
</glyph>
<glyph name="Germandbls" format="2">
  <advance width="744"/>
  <unicode hex="1E9E"/>
  <outline>
    <contour>
      <point x="825" y="700" type="curve" smooth="yes"/>
      <point x="283" y="700" type="line" smooth="yes"/>
      <point x="262.0" y="700.0"/>
      <point x="244" y="683"/>
      <point x="244" y="670" type="curve" smooth="yes"/>
      <point x="244" y="662"/>
      <point x="248" y="655"/>
      <point x="256" y="653" type="curve" smooth="yes"/>
      <point x="296" y="641" type="line" smooth="yes"/>
      <point x="307" y="638"/>
      <point x="313" y="630"/>
      <point x="313" y="616" type="curve" smooth="yes"/>
      <point x="313" y="609"/>
      <point x="311" y="601"/>
      <point x="309" y="592" type="curve" smooth="yes"/>
      <point x="278.0" y="422.0"/>
      <point x="232.0" y="255.0"/>
      <point x="175" y="93" type="curve" smooth="yes"/>
      <point x="166" y="67"/>
      <point x="152" y="53"/>
      <point x="135" y="50" type="curve" smooth="yes"/>
      <point x="104" y="45" type="line" smooth="yes"/>
      <point x="81" y="41"/>
      <point x="71" y="25"/>
      <point x="71" y="15" type="curve" smooth="yes"/>
      <point x="71" y="5"/>
      <point x="79.0" y="0"/>
      <point x="93" y="0" type="curve" smooth="yes"/>
      <point x="216" y="0" type="line" smooth="yes"/>
      <point x="240" y="0"/>
      <point x="264.99301465421456" y="16.963676201915764"/>
      <point x="270" y="43" type="curve" smooth="yes"/>
      <point x="306" y="218"/>
      <point x="353" y="399"/>
      <point x="411" y="569" type="curve" smooth="yes"/>
      <point x="428.9499403083133" y="622.8498209249398"/>
      <point x="445.01408450704224" y="650"/>
      <point x="480" y="650" type="curve" smooth="yes"/>
      <point x="672" y="650" type="line" smooth="yes"/>
      <point x="693" y="650"/>
      <point x="703" y="644"/>
      <point x="703" y="631" type="curve" smooth="yes"/>
      <point x="703" y="619"/>
      <point x="695" y="600"/>
      <point x="677" y="585" type="curve" smooth="yes"/>
      <point x="509" y="427" type="line" smooth="yes"/>
      <point x="481" y="401"/>
      <point x="473" y="382"/>
      <point x="473" y="373" type="curve" smooth="yes"/>
      <point x="473" y="359"/>
      <point x="481" y="348"/>
      <point x="499" y="348" type="curve" smooth="yes"/>
      <point x="537" y="348" type="line" smooth="yes"/>
      <point x="605" y="348"/>
      <point x="659" y="307"/>
      <point x="659" y="227" type="curve" smooth="yes"/>
      <point x="659" y="112"/>
      <point x="582" y="36"/>
      <point x="520" y="36" type="curve" smooth="yes"/>
      <point x="470" y="36"/>
      <point x="437" y="58"/>
      <point x="424" y="106" type="curve" smooth="yes"/>
      <point x="413" y="145" type="line" smooth="yes"/>
      <point x="406" y="173"/>
      <point x="399" y="182"/>
      <point x="386" y="182" type="curve" smooth="yes"/>
      <point x="372" y="182"/>
      <point x="359" y="169"/>
      <point x="357" y="147" type="curve" smooth="yes"/>
      <point x="346" y="26" type="line" smooth="yes"/>
      <point x="346" y="21"/>
      <point x="346" y="17"/>
      <point x="346" y="14" type="curve" smooth="yes"/>
      <point x="346" y="-6"/>
      <point x="350" y="-15"/>
      <point x="363" y="-15" type="curve" smooth="yes"/>
      <point x="380" y="-15"/>
      <point x="396" y="10"/>
      <point x="408" y="10" type="curve"/>
      <point x="426" y="10"/>
      <point x="454" y="-15"/>
      <point x="518" y="-15" type="curve" smooth="yes"/>
      <point x="643" y="-15"/>
      <point x="766" y="106"/>
      <point x="766" y="244" type="curve" smooth="yes"/>
      <point x="766" y="336"/>
      <point x="692" y="394"/>
      <point x="553" y="394" type="curve"/>
      <point x="554" y="359" type="line"/>
      <point x="823" y="610" type="line" smooth="yes"/>
      <point x="842" y="627"/>
      <point x="858" y="649"/>
      <point x="858" y="669" type="curve" smooth="yes"/>
      <point x="858" y="688"/>
      <point x="846" y="700"/>
    </contour>
  </outline>
</glyph>
<glyph name="emdash" format="2">
  <advance width="913"/>
  <unicode hex="2014"/>
  <outline>
    <contour>
      <point x="100" y="242" type="curve" smooth="yes"/>
      <point x="100.0" y="236.6"/>
      <point x="104.0" y="233"/>
      <point x="113" y="233" type="curve" smooth="yes"/>
      <point x="923" y="233" type="line" smooth="yes"/>
      <point x="934.6923076923077" y="233"/>
      <point x="942.0" y="237.4"/>
      <point x="942" y="244" type="curve" smooth="yes"/>
      <point x="942.0" y="249.4"/>
      <point x="936.0" y="253"/>
      <point x="929" y="253" type="curve" smooth="yes"/>
      <point x="120" y="253" type="line" smooth="yes"/>
      <point x="108.57142857142857" y="253"/>
      <point x="100.0" y="248.6"/>
    </contour>
  </outline>
</glyph>
<glyph name="zero.superior" format="2">
  <advance width="402"/>
  <unicode hex="2070"/>
  <outline>
    <contour>
      <point x="377" y="651" type="curve" smooth="yes"/>
      <point x="291" y="651"/>
      <point x="216" y="579"/>
      <point x="198" y="476" type="curve" smooth="yes"/>
      <point x="179" y="371"/>
      <point x="228" y="297"/>
      <point x="314" y="297" type="curve" smooth="yes"/>
      <point x="401" y="297"/>
      <point x="477" y="371"/>
      <point x="496" y="476" type="curve" smooth="yes"/>
      <point x="514" y="579"/>
      <point x="464" y="651"/>
    </contour>
    <contour>
      <point x="412" y="453" type="curve" smooth="yes"/>
      <point x="400" y="385"/>
      <point x="366" y="338"/>
      <point x="331" y="338" type="curve" smooth="yes"/>
      <point x="285" y="338"/>
      <point x="264" y="402"/>
      <point x="280" y="495" type="curve" smooth="yes"/>
      <point x="292" y="560"/>
      <point x="328" y="610"/>
      <point x="364" y="610" type="curve" smooth="yes"/>
      <point x="409" y="610"/>
      <point x="428" y="546"/>
    </contour>
  </outline>
</glyph>
<glyph name="franc" format="2">
  <advance width="493"/>
  <unicode hex="20A3"/>
  <outline>
    <contour>
      <point x="201" y="632" type="curve" smooth="yes"/>
      <point x="200" y="626"/>
      <point x="208" y="626"/>
      <point x="224" y="622" type="curve" smooth="yes"/>
      <point x="251" y="617" type="line" smooth="yes"/>
      <point x="263" y="614"/>
      <point x="267" y="601"/>
      <point x="263" y="584" type="curve" smooth="yes"/>
      <point x="229" y="405"/>
      <point x="185" y="229"/>
      <point x="134" y="64" type="curve" smooth="yes"/>
      <point x="127" y="41"/>
      <point x="116" y="28"/>
      <point x="96" y="25" type="curve" smooth="yes"/>
      <point x="55" y="17" type="line" smooth="yes"/>
      <point x="44" y="16"/>
      <point x="42" y="13"/>
      <point x="41" y="9" type="curve" smooth="yes"/>
      <point x="39" y="4"/>
      <point x="44" y="0"/>
      <point x="50" y="0" type="curve" smooth="yes"/>
      <point x="269" y="0" type="line" smooth="yes"/>
      <point x="283" y="0"/>
      <point x="287" y="4"/>
      <point x="287" y="8" type="curve" smooth="yes"/>
      <point x="287" y="14"/>
      <point x="282" y="16"/>
      <point x="270" y="16" type="curve" smooth="yes"/>
      <point x="219" y="20"/>
      <point x="208" y="34"/>
      <point x="215" y="68" type="curve" smooth="yes"/>
      <point x="247" y="224"/>
      <point x="294" y="409"/>
      <point x="355" y="620" type="curve"/>
      <point x="465" y="620" type="line" smooth="yes"/>
      <point x="520" y="620"/>
      <point x="548" y="600"/>
      <point x="567" y="550" type="curve" smooth="yes"/>
      <point x="586" y="502" type="line" smooth="yes"/>
      <point x="588" y="496"/>
      <point x="591" y="494"/>
      <point x="596" y="494" type="curve" smooth="yes"/>
      <point x="599" y="494"/>
      <point x="603" y="497"/>
      <point x="602" y="505" type="curve" smooth="yes"/>
      <point x="591" y="646" type="line" smooth="yes"/>
      <point x="591" y="650"/>
      <point x="589" y="652"/>
      <point x="586" y="652" type="curve" smooth="yes"/>
      <point x="581" y="652"/>
      <point x="578" y="651"/>
      <point x="574" y="648" type="curve" smooth="yes"/>
      <point x="566" y="642"/>
      <point x="550" y="639"/>
      <point x="540" y="639" type="curve" smooth="yes"/>
      <point x="234" y="639" type="line" smooth="yes"/>
      <point x="216" y="639"/>
      <point x="203" y="638"/>
    </contour>
    <contour>
      <point x="253" y="320" type="line"/>
      <point x="247" y="301" type="line"/>
      <point x="402" y="301" type="line" smooth="yes"/>
      <point x="441" y="301"/>
      <point x="462" y="280"/>
      <point x="476" y="244" type="curve" smooth="yes"/>
      <point x="479" y="237"/>
      <point x="482" y="235"/>
      <point x="487" y="235" type="curve" smooth="yes"/>
      <point x="491" y="235"/>
      <point x="493" y="238"/>
      <point x="492" y="245" type="curve" smooth="yes"/>
      <point x="463" y="384" type="line" smooth="yes"/>
      <point x="462" y="388"/>
      <point x="461" y="392"/>
      <point x="456" y="392" type="curve" smooth="yes"/>
      <point x="453" y="392"/>
      <point x="451" y="390"/>
      <point x="450" y="384" type="curve" smooth="yes"/>
      <point x="440" y="339"/>
      <point x="424" y="320"/>
      <point x="385" y="320" type="curve" smooth="yes"/>
    </contour>
    <contour>
      <point x="102" y="193" type="curve" smooth="yes"/>
      <point x="86" y="193"/>
      <point x="77" y="183"/>
      <point x="75" y="171" type="curve" smooth="yes"/>
      <point x="74" y="159"/>
      <point x="77" y="149"/>
      <point x="93" y="149" type="curve" smooth="yes"/>
      <point x="108" y="149"/>
      <point x="140" y="163"/>
      <point x="221" y="163" type="curve" smooth="yes"/>
      <point x="303" y="163"/>
      <point x="329" y="149"/>
      <point x="343" y="149" type="curve" smooth="yes"/>
      <point x="358" y="149"/>
      <point x="368" y="159"/>
      <point x="369" y="171" type="curve" smooth="yes"/>
      <point x="371" y="183"/>
      <point x="368" y="193"/>
      <point x="351" y="193" type="curve" smooth="yes"/>
      <point x="337" y="193"/>
      <point x="306" y="179"/>
      <point x="224" y="179" type="curve" smooth="yes"/>
      <point x="143" y="179"/>
      <point x="116" y="193"/>
    </contour>
  </outline>
</glyph>
<glyph name="naira" format="2">
  <advance width="603"/>
  <unicode hex="20A6"/>
  <outline>
    <contour>
      <point x="162" y="73" type="curve" smooth="yes"/>
      <point x="286" y="532" type="line"/>
      <point x="260" y="530" type="line"/>
      <point x="347" y="333"/>
      <point x="410" y="181"/>
      <point x="459" y="57" type="curve" smooth="yes"/>
      <point x="464.0" y="47.0"/>
      <point x="460.0" y="31.0"/>
      <point x="460" y="13" type="curve" smooth="yes"/>
      <point x="460" y="5"/>
      <point x="464" y="0"/>
      <point x="474" y="0" type="curve" smooth="yes"/>
      <point x="515" y="0" type="line" smooth="yes"/>
      <point x="524.0" y="0.0"/>
      <point x="532" y="5"/>
      <point x="532" y="16" type="curve" smooth="yes"/>
      <point x="532.0" y="40.0"/>
      <point x="519.0" y="81.0"/>
      <point x="519" y="100" type="curve" smooth="yes"/>
      <point x="519.0" y="107.0"/>
      <point x="517" y="114"/>
      <point x="521" y="130" type="curve" smooth="yes"/>
      <point x="629" y="557" type="line" smooth="yes"/>
      <point x="635" y="581"/>
      <point x="651" y="593"/>
      <point x="674" y="601" type="curve" smooth="yes"/>
      <point x="720" y="617" type="line" smooth="yes"/>
      <point x="730" y="619"/>
      <point x="733" y="622"/>
      <point x="733" y="626" type="curve" smooth="yes"/>
      <point x="733" y="632"/>
      <point x="728" y="635"/>
      <point x="719" y="635" type="curve" smooth="yes"/>
      <point x="553" y="635" type="line" smooth="yes"/>
      <point x="545" y="635"/>
      <point x="539" y="632"/>
      <point x="539" y="628" type="curve" smooth="yes"/>
      <point x="539" y="624"/>
      <point x="541" y="621"/>
      <point x="549" y="619" type="curve" smooth="yes"/>
      <point x="583" y="603" type="line" smooth="yes"/>
      <point x="604" y="593"/>
      <point x="609" y="582"/>
      <point x="604" y="562" type="curve" smooth="yes"/>
      <point x="492" y="118" type="line"/>
      <point x="517" y="120" type="line"/>
      <point x="449" y="270"/>
      <point x="388" y="411"/>
      <point x="306" y="620" type="curve" smooth="yes"/>
      <point x="303.0" y="630.0"/>
      <point x="297.0" y="635.0"/>
      <point x="290" y="635" type="curve" smooth="yes"/>
      <point x="222" y="635" type="line" smooth="yes"/>
      <point x="217" y="635"/>
      <point x="212" y="632"/>
      <point x="211" y="627" type="curve" smooth="yes"/>
      <point x="210" y="622"/>
      <point x="214" y="618"/>
      <point x="217" y="613" type="curve" smooth="yes"/>
      <point x="254" y="536" type="line" smooth="yes"/>
      <point x="258" y="528"/>
      <point x="259" y="525"/>
      <point x="256" y="513" type="curve" smooth="yes"/>
      <point x="137" y="78" type="line" smooth="yes"/>
      <point x="130" y="54"/>
      <point x="114" y="42"/>
      <point x="92" y="34" type="curve" smooth="yes"/>
      <point x="46" y="18" type="line" smooth="yes"/>
      <point x="36" y="16"/>
      <point x="33" y="13"/>
      <point x="33" y="9" type="curve" smooth="yes"/>
      <point x="33" y="3"/>
      <point x="38" y="0"/>
      <point x="47" y="0" type="curve" smooth="yes"/>
      <point x="213" y="0" type="line" smooth="yes"/>
      <point x="221" y="0"/>
      <point x="227" y="3"/>
      <point x="227" y="7" type="curve" smooth="yes"/>
      <point x="227" y="11"/>
      <point x="225" y="14"/>
      <point x="217" y="16" type="curve" smooth="yes"/>
      <point x="182" y="32" type="line" smooth="yes"/>
      <point x="160" y="42"/>
      <point x="157" y="53"/>
    </contour>
    <contour>
      <point x="153" y="351" type="curve" smooth="yes"/>
      <point x="131" y="351"/>
      <point x="118" y="337"/>
      <point x="115" y="323" type="curve" smooth="yes"/>
      <point x="111" y="309"/>
      <point x="118" y="295"/>
      <point x="140" y="295" type="curve" smooth="yes"/>
      <point x="168" y="295"/>
      <point x="230" y="314"/>
      <point x="387" y="314" type="curve" smooth="yes"/>
      <point x="545" y="314"/>
      <point x="596" y="295"/>
      <point x="623" y="295" type="curve" smooth="yes"/>
      <point x="645" y="295"/>
      <point x="657" y="309"/>
      <point x="661" y="323" type="curve" smooth="yes"/>
      <point x="664" y="337"/>
      <point x="658" y="351"/>
      <point x="636" y="351" type="curve" smooth="yes"/>
      <point x="609" y="351"/>
      <point x="548" y="332"/>
      <point x="391" y="332" type="curve" smooth="yes"/>
      <point x="232" y="332"/>
      <point x="181" y="351"/>
    </contour>
  </outline>
</glyph>
<glyph name="peseta" format="2">
  <advance width="1044"/>
  <unicode hex="20A7"/>
  <outline>
    <contour>
      <point x="611" y="417" type="line" smooth="yes"/>
      <point x="629" y="417"/>
      <point x="629" y="395"/>
      <point x="623" y="374" type="curve" smooth="yes"/>
      <point x="547" y="91" type="line" smooth="yes"/>
      <point x="529" y="24"/>
      <point x="553" y="-15"/>
      <point x="605" y="-15" type="curve" smooth="yes"/>
      <point x="647" y="-15"/>
      <point x="709" y="11"/>
      <point x="749" y="42" type="curve" smooth="yes"/>
      <point x="766" y="54"/>
      <point x="772" y="62"/>
      <point x="775" y="73" type="curve" smooth="yes"/>
      <point x="775" y="75"/>
      <point x="771" y="77"/>
      <point x="763" y="77" type="curve" smooth="yes"/>
      <point x="757" y="77"/>
      <point x="750" y="75"/>
      <point x="740" y="69" type="curve" smooth="yes"/>
      <point x="714" y="53"/>
      <point x="700" y="52"/>
      <point x="678" y="52" type="curve" smooth="yes"/>
      <point x="639" y="52"/>
      <point x="620" y="79"/>
      <point x="633" y="127" type="curve" smooth="yes"/>
      <point x="743" y="537" type="line" smooth="yes"/>
      <point x="747" y="553"/>
      <point x="739" y="563"/>
      <point x="723" y="563" type="curve" smooth="yes"/>
      <point x="715" y="563"/>
      <point x="704" y="556"/>
      <point x="691" y="538" type="curve" smooth="yes"/>
      <point x="653" y="486" type="line" smooth="yes"/>
      <point x="644" y="473"/>
      <point x="633" y="465"/>
      <point x="620" y="465" type="curve" smooth="yes"/>
      <point x="577" y="465" type="line" smooth="yes"/>
      <point x="564" y="465"/>
      <point x="554" y="455"/>
      <point x="551" y="444" type="curve" smooth="yes"/>
      <point x="548" y="433"/>
      <point x="550" y="417"/>
      <point x="566" y="417" type="curve" smooth="yes"/>
    </contour>
    <contour>
      <point x="650" y="418" type="line"/>
      <point x="650" y="418"/>
      <point x="777" y="418"/>
      <point x="802" y="418" type="curve" smooth="yes"/>
      <point x="816" y="418"/>
      <point x="828" y="425"/>
      <point x="832" y="442" type="curve" smooth="yes"/>
      <point x="836" y="457"/>
      <point x="829" y="465"/>
      <point x="813" y="465" type="curve" smooth="yes"/>
      <point x="797" y="465"/>
      <point x="664" y="465"/>
      <point x="664" y="465" type="curve"/>
    </contour>
    <contour>
      <point x="877" y="31" type="curve" smooth="yes"/>
      <point x="831" y="31"/>
      <point x="793" y="52"/>
      <point x="779" y="114" type="curve" smooth="yes"/>
      <point x="773" y="135"/>
      <point x="767" y="143"/>
      <point x="759" y="143" type="curve" smooth="yes"/>
      <point x="748" y="143"/>
      <point x="741" y="136"/>
      <point x="738" y="123" type="curve" smooth="yes"/>
      <point x="735" y="111"/>
      <point x="735" y="98"/>
      <point x="738" y="79" type="curve" smooth="yes"/>
      <point x="750" y="-3" type="line" smooth="yes"/>
      <point x="752" y="-12"/>
      <point x="755" y="-15"/>
      <point x="761" y="-15" type="curve" smooth="yes"/>
      <point x="770" y="-15"/>
      <point x="782" y="3"/>
      <point x="793" y="3" type="curve" smooth="yes"/>
      <point x="805" y="3"/>
      <point x="828" y="-15"/>
      <point x="863" y="-15" type="curve" smooth="yes"/>
      <point x="945" y="-15"/>
      <point x="1012" y="49"/>
      <point x="1034" y="131" type="curve" smooth="yes"/>
      <point x="1049" y="186"/>
      <point x="1029" y="241"/>
      <point x="963" y="269" type="curve" smooth="yes"/>
      <point x="900" y="295"/>
      <point x="874" y="324"/>
      <point x="886" y="370" type="curve" smooth="yes"/>
      <point x="896" y="408"/>
      <point x="932" y="433"/>
      <point x="967" y="433" type="curve" smooth="yes"/>
      <point x="1001" y="433"/>
      <point x="1026" y="409"/>
      <point x="1047" y="345" type="curve" smooth="yes"/>
      <point x="1052" y="330"/>
      <point x="1059" y="320"/>
      <point x="1071" y="320" type="curve" smooth="yes"/>
      <point x="1083" y="320"/>
      <point x="1089" y="328"/>
      <point x="1092" y="340" type="curve" smooth="yes"/>
      <point x="1094" y="346"/>
      <point x="1094" y="357"/>
      <point x="1093" y="366" type="curve" smooth="yes"/>
      <point x="1085" y="461" type="line" smooth="yes"/>
      <point x="1083" y="474"/>
      <point x="1079" y="480"/>
      <point x="1071" y="480" type="curve" smooth="yes"/>
      <point x="1062" y="480"/>
      <point x="1053" y="462"/>
      <point x="1041" y="462" type="curve" smooth="yes"/>
      <point x="1030" y="462"/>
      <point x="1013" y="479"/>
      <point x="981" y="479" type="curve" smooth="yes"/>
      <point x="908" y="479"/>
      <point x="833" y="413"/>
      <point x="813" y="339" type="curve" smooth="yes"/>
      <point x="794" y="268"/>
      <point x="822" y="221"/>
      <point x="890" y="194" type="curve" smooth="yes"/>
      <point x="947" y="171"/>
      <point x="971" y="141"/>
      <point x="959" y="97" type="curve" smooth="yes"/>
      <point x="949" y="59"/>
      <point x="917" y="31"/>
    </contour>
    <contour>
      <point x="576" y="414" type="curve" smooth="yes"/>
      <point x="611" y="547"/>
      <point x="544" y="635"/>
      <point x="408" y="635" type="curve" smooth="yes"/>
      <point x="235" y="635" type="line" smooth="yes"/>
      <point x="221" y="635"/>
      <point x="211" y="629"/>
      <point x="207" y="617" type="curve" smooth="yes"/>
      <point x="204" y="606"/>
      <point x="210" y="600"/>
      <point x="223" y="596" type="curve" smooth="yes"/>
      <point x="240" y="591" type="line" smooth="yes"/>
      <point x="257" y="586"/>
      <point x="262" y="570"/>
      <point x="256" y="549" type="curve" smooth="yes"/>
      <point x="132" y="85" type="line" smooth="yes"/>
      <point x="126" y="65"/>
      <point x="113" y="49"/>
      <point x="94" y="45" type="curve" smooth="yes"/>
      <point x="73" y="39" type="line" smooth="yes"/>
      <point x="58" y="35"/>
      <point x="50" y="29"/>
      <point x="47" y="18" type="curve" smooth="yes"/>
      <point x="44" y="6"/>
      <point x="51" y="0"/>
      <point x="65" y="0" type="curve" smooth="yes"/>
      <point x="248" y="0" type="line" smooth="yes"/>
      <point x="262" y="0"/>
      <point x="273" y="6"/>
      <point x="276" y="18" type="curve" smooth="yes"/>
      <point x="279" y="29"/>
      <point x="275" y="36"/>
      <point x="260" y="39" type="curve" smooth="yes"/>
      <point x="236" y="45" type="line" smooth="yes"/>
      <point x="219" y="49"/>
      <point x="213" y="65"/>
      <point x="219" y="85" type="curve" smooth="yes"/>
      <point x="353" y="585" type="line"/>
      <point x="391" y="585" type="line" smooth="yes"/>
      <point x="472" y="585"/>
      <point x="514" y="521"/>
      <point x="489" y="430" type="curve" smooth="yes"/>
      <point x="461" y="326"/>
      <point x="392" y="258"/>
      <point x="318" y="258" type="curve" smooth="yes"/>
      <point x="260" y="258"/>
      <point x="234" y="270"/>
      <point x="210" y="290" type="curve"/>
      <point x="192" y="249" type="line"/>
      <point x="216" y="227"/>
      <point x="242" y="213"/>
      <point x="308" y="213" type="curve" smooth="yes"/>
      <point x="435" y="213"/>
      <point x="544" y="294"/>
    </contour>
  </outline>
</glyph>
<glyph name="kip" format="2">
  <advance width="638"/>
  <unicode hex="20AD"/>
  <outline>
    <contour>
      <point x="147" y="349" type="curve" smooth="yes"/>
      <point x="124" y="349"/>
      <point x="110" y="336"/>
      <point x="107" y="323" type="curve" smooth="yes"/>
      <point x="103" y="310"/>
      <point x="110" y="297"/>
      <point x="134" y="297" type="curve" smooth="yes"/>
      <point x="150" y="297"/>
      <point x="180" y="305"/>
      <point x="241" y="311" type="curve"/>
      <point x="243" y="336" type="line"/>
      <point x="188" y="341"/>
      <point x="163" y="349"/>
    </contour>
    <contour>
      <point x="359" y="315" type="line"/>
      <point x="484" y="314"/>
      <point x="525" y="297"/>
      <point x="547" y="297" type="curve" smooth="yes"/>
      <point x="570" y="297"/>
      <point x="583" y="310"/>
      <point x="587" y="323" type="curve" smooth="yes"/>
      <point x="590" y="336"/>
      <point x="584" y="349"/>
      <point x="561" y="349" type="curve" smooth="yes"/>
      <point x="538" y="349"/>
      <point x="487" y="332"/>
      <point x="358" y="331" type="curve"/>
    </contour>
    <component base="K" xScale="0.909" yScale="0.909" xOffset="4"/>
    <component base="K" xScale="0.909" yScale="0.909" xOffset="4"/>
  </outline>
</glyph>
<glyph name="peso" format="2">
  <advance width="595"/>
  <unicode hex="20B1"/>
  <outline>
    <contour>
      <point x="176" y="390" type="curve" smooth="yes"/>
      <point x="150" y="390"/>
      <point x="134" y="377"/>
      <point x="131" y="364" type="curve" smooth="yes"/>
      <point x="126" y="351"/>
      <point x="134" y="338"/>
      <point x="160" y="338" type="curve" smooth="yes"/>
      <point x="187" y="338"/>
      <point x="246" y="356"/>
      <point x="399" y="356" type="curve" smooth="yes"/>
      <point x="550" y="356"/>
      <point x="598" y="338"/>
      <point x="624" y="338" type="curve" smooth="yes"/>
      <point x="650" y="338"/>
      <point x="664" y="351"/>
      <point x="669" y="364" type="curve" smooth="yes"/>
      <point x="672" y="377"/>
      <point x="665" y="390"/>
      <point x="639" y="390" type="curve" smooth="yes"/>
      <point x="613" y="390"/>
      <point x="554" y="372"/>
      <point x="403" y="372" type="curve" smooth="yes"/>
      <point x="251" y="372"/>
      <point x="203" y="390"/>
    </contour>
    <contour>
      <point x="202" y="500" type="curve" smooth="yes"/>
      <point x="176" y="500"/>
      <point x="160" y="487"/>
      <point x="157" y="474" type="curve" smooth="yes"/>
      <point x="152" y="461"/>
      <point x="160" y="448"/>
      <point x="186" y="448" type="curve" smooth="yes"/>
      <point x="213" y="448"/>
      <point x="272" y="466"/>
      <point x="425" y="466" type="curve" smooth="yes"/>
      <point x="576" y="466"/>
      <point x="624" y="448"/>
      <point x="650" y="448" type="curve" smooth="yes"/>
      <point x="676" y="448"/>
      <point x="690" y="461"/>
      <point x="695" y="474" type="curve" smooth="yes"/>
      <point x="698" y="487"/>
      <point x="691" y="500"/>
      <point x="665" y="500" type="curve" smooth="yes"/>
      <point x="639" y="500"/>
      <point x="580" y="482"/>
      <point x="429" y="482" type="curve" smooth="yes"/>
      <point x="277" y="482"/>
      <point x="229" y="500"/>
    </contour>
    <contour>
      <point x="494" y="215"/>
      <point x="619" y="316"/>
      <point x="619" y="457" type="curve" smooth="yes"/>
      <point x="619" y="569"/>
      <point x="553" y="636"/>
      <point x="447" y="636" type="curve" smooth="yes"/>
      <point x="220" y="636" type="line" smooth="yes"/>
      <point x="210" y="636"/>
      <point x="206" y="632"/>
      <point x="206" y="627" type="curve" smooth="yes"/>
      <point x="206" y="624"/>
      <point x="209" y="622"/>
      <point x="215" y="620" type="curve" smooth="yes"/>
      <point x="254" y="608" type="line" smooth="yes"/>
      <point x="267" y="604"/>
      <point x="272" y="598"/>
      <point x="272" y="586" type="curve" smooth="yes"/>
      <point x="272" y="580"/>
      <point x="272" y="571"/>
      <point x="268" y="550" type="curve" smooth="yes"/>
      <point x="234" y="395"/>
      <point x="185" y="217"/>
      <point x="139" y="61" type="curve" smooth="yes"/>
      <point x="134" y="42"/>
      <point x="122" y="29"/>
      <point x="103" y="24" type="curve" smooth="yes"/>
      <point x="66" y="14" type="line" smooth="yes"/>
      <point x="57" y="12"/>
      <point x="53" y="8"/>
      <point x="53" y="5" type="curve" smooth="yes"/>
      <point x="53" y="2"/>
      <point x="57" y="0"/>
      <point x="64" y="0" type="curve" smooth="yes"/>
      <point x="278" y="0" type="line" smooth="yes"/>
      <point x="285" y="0"/>
      <point x="290" y="4"/>
      <point x="290" y="7" type="curve" smooth="yes"/>
      <point x="290" y="12"/>
      <point x="287" y="14"/>
      <point x="282" y="15" type="curve" smooth="yes"/>
      <point x="236" y="25" type="line" smooth="yes"/>
      <point x="219" y="29"/>
      <point x="212" y="35"/>
      <point x="212" y="45" type="curve" smooth="yes"/>
      <point x="212" y="52"/>
      <point x="213" y="57"/>
      <point x="216" y="70" type="curve" smooth="yes"/>
      <point x="246" y="198"/>
      <point x="317" y="461"/>
      <point x="341" y="544" type="curve" smooth="yes"/>
      <point x="354" y="591"/>
      <point x="390" y="614"/>
      <point x="440" y="614" type="curve" smooth="yes"/>
      <point x="504" y="614"/>
      <point x="547" y="564"/>
      <point x="547" y="462" type="curve" smooth="yes"/>
      <point x="547" y="319"/>
      <point x="453" y="239"/>
      <point x="347" y="239" type="curve" smooth="yes"/>
      <point x="290" y="239"/>
      <point x="252" y="256"/>
      <point x="223" y="283" type="curve"/>
      <point x="214" y="262" type="line"/>
      <point x="249" y="233"/>
      <point x="297" y="215"/>
      <point x="367" y="215" type="curve" smooth="yes"/>
    </contour>
  </outline>
</glyph>
<glyph name="guarani" format="2">
  <advance width="550"/>
  <unicode hex="20B2"/>
  <outline>
    <contour>
      <point x="451" y="629" type="curve" smooth="yes"/>
      <point x="271" y="629"/>
      <point x="113" y="415"/>
      <point x="113" y="220" type="curve" smooth="yes"/>
      <point x="113" y="88"/>
      <point x="188" y="0"/>
      <point x="306" y="0" type="curve" smooth="yes"/>
      <point x="394" y="0"/>
      <point x="427" y="48"/>
      <point x="442" y="48" type="curve" smooth="yes"/>
      <point x="457" y="48"/>
      <point x="469" y="0"/>
      <point x="478" y="0" type="curve" smooth="yes"/>
      <point x="484" y="0"/>
      <point x="488" y="4"/>
      <point x="491" y="15" type="curve" smooth="yes"/>
      <point x="509" y="93"/>
      <point x="525" y="152"/>
      <point x="535" y="185" type="curve" smooth="yes"/>
      <point x="555" y="252"/>
      <point x="566" y="266"/>
      <point x="600" y="275" type="curve" smooth="yes"/>
      <point x="606" y="277"/>
      <point x="608" y="278"/>
      <point x="608" y="282" type="curve" smooth="yes"/>
      <point x="608" y="284"/>
      <point x="606" y="286"/>
      <point x="597" y="286" type="curve" smooth="yes"/>
      <point x="440" y="286" type="line" smooth="yes"/>
      <point x="434" y="286"/>
      <point x="430" y="284"/>
      <point x="430" y="281" type="curve" smooth="yes"/>
      <point x="430" y="277"/>
      <point x="432" y="276"/>
      <point x="440" y="272" type="curve" smooth="yes"/>
      <point x="454" y="264" type="line" smooth="yes"/>
      <point x="473" y="253"/>
      <point x="479" y="234"/>
      <point x="470" y="188" type="curve" smooth="yes"/>
      <point x="445" y="67"/>
      <point x="397" y="25"/>
      <point x="321" y="25" type="curve" smooth="yes"/>
      <point x="238" y="25"/>
      <point x="197" y="102"/>
      <point x="197" y="219" type="curve" smooth="yes"/>
      <point x="197" y="404"/>
      <point x="314" y="608"/>
      <point x="450" y="608" type="curve" smooth="yes"/>
      <point x="518" y="608"/>
      <point x="550" y="581"/>
      <point x="579" y="513" type="curve" smooth="yes"/>
      <point x="602" y="459" type="line" smooth="yes"/>
      <point x="604" y="454"/>
      <point x="607" y="451"/>
      <point x="609" y="451" type="curve" smooth="yes"/>
      <point x="613" y="451"/>
      <point x="617" y="454"/>
      <point x="617" y="464" type="curve" smooth="yes"/>
      <point x="623" y="613" type="line" smooth="yes"/>
      <point x="623" y="621"/>
      <point x="619" y="625"/>
      <point x="614" y="625" type="curve" smooth="yes"/>
      <point x="600" y="625"/>
      <point x="587" y="590"/>
      <point x="570" y="590" type="curve" smooth="yes"/>
      <point x="555" y="590"/>
      <point x="532" y="629"/>
    </contour>
    <contour>
      <point x="251" y="-26" type="curve" smooth="yes"/>
      <point x="242" y="-57"/>
      <point x="257" y="-70"/>
      <point x="276" y="-70" type="curve" smooth="yes"/>
      <point x="295" y="-70"/>
      <point x="311" y="-58"/>
      <point x="319" y="-33" type="curve" smooth="yes"/>
      <point x="331" y="8"/>
      <point x="315" y="58"/>
      <point x="385" y="316" type="curve" smooth="yes"/>
      <point x="454" y="573"/>
      <point x="490" y="619"/>
      <point x="503" y="663" type="curve" smooth="yes"/>
      <point x="511" y="691"/>
      <point x="494" y="704"/>
      <point x="477" y="704" type="curve" smooth="yes"/>
      <point x="460" y="704"/>
      <point x="445" y="692"/>
      <point x="438" y="665" type="curve" smooth="yes"/>
      <point x="426" y="626"/>
      <point x="439" y="579"/>
      <point x="368" y="316" type="curve" smooth="yes"/>
      <point x="301" y="65"/>
      <point x="262" y="16"/>
    </contour>
  </outline>
</glyph>
<glyph name="ruble" format="2">
  <advance width="511"/>
  <unicode hex="20BD"/>
  <outline>
    <contour>
      <point x="499" y="265"/>
      <point x="612" y="363"/>
      <point x="612" y="494" type="curve" smooth="yes"/>
      <point x="612" y="583"/>
      <point x="546" y="636"/>
      <point x="440" y="636" type="curve" smooth="yes"/>
      <point x="213" y="636" type="line" smooth="yes"/>
      <point x="203" y="636"/>
      <point x="199" y="632"/>
      <point x="199" y="627" type="curve" smooth="yes"/>
      <point x="199" y="624"/>
      <point x="202" y="622"/>
      <point x="208" y="620" type="curve" smooth="yes"/>
      <point x="247" y="608" type="line" smooth="yes"/>
      <point x="260" y="604"/>
      <point x="265" y="598"/>
      <point x="265" y="586" type="curve" smooth="yes"/>
      <point x="265" y="580"/>
      <point x="265" y="571"/>
      <point x="261" y="550" type="curve" smooth="yes"/>
      <point x="227" y="395"/>
      <point x="178" y="217"/>
      <point x="132" y="61" type="curve" smooth="yes"/>
      <point x="127" y="42"/>
      <point x="115" y="29"/>
      <point x="96" y="24" type="curve" smooth="yes"/>
      <point x="59" y="14" type="line" smooth="yes"/>
      <point x="50" y="12"/>
      <point x="46" y="8"/>
      <point x="46" y="5" type="curve" smooth="yes"/>
      <point x="46" y="2"/>
      <point x="50" y="0"/>
      <point x="57" y="0" type="curve" smooth="yes"/>
      <point x="271" y="0" type="line" smooth="yes"/>
      <point x="278" y="0"/>
      <point x="283" y="4"/>
      <point x="283" y="7" type="curve" smooth="yes"/>
      <point x="283" y="12"/>
      <point x="280" y="14"/>
      <point x="275" y="15" type="curve" smooth="yes"/>
      <point x="229" y="25" type="line" smooth="yes"/>
      <point x="212" y="29"/>
      <point x="205" y="35"/>
      <point x="205" y="45" type="curve" smooth="yes"/>
      <point x="205" y="52"/>
      <point x="206" y="57"/>
      <point x="209" y="70" type="curve" smooth="yes"/>
      <point x="239" y="198"/>
      <point x="310" y="461"/>
      <point x="334" y="544" type="curve" smooth="yes"/>
      <point x="347" y="591"/>
      <point x="383" y="614"/>
      <point x="433" y="614" type="curve" smooth="yes"/>
      <point x="497" y="614"/>
      <point x="540" y="577"/>
      <point x="540" y="504" type="curve" smooth="yes"/>
      <point x="540" y="374"/>
      <point x="446" y="281"/>
      <point x="340" y="281" type="curve" smooth="yes"/>
      <point x="241" y="281" type="line"/>
      <point x="238" y="265" type="line"/>
      <point x="350" y="265" type="line" smooth="yes"/>
    </contour>
    <contour>
      <point x="111" y="191" type="curve" smooth="yes"/>
      <point x="91" y="191"/>
      <point x="80" y="178"/>
      <point x="77" y="165" type="curve" smooth="yes"/>
      <point x="74" y="152"/>
      <point x="81" y="139"/>
      <point x="100" y="139" type="curve" smooth="yes"/>
      <point x="121" y="139"/>
      <point x="165" y="157"/>
      <point x="279" y="157" type="curve" smooth="yes"/>
      <point x="392" y="157"/>
      <point x="427" y="139"/>
      <point x="447" y="139" type="curve" smooth="yes"/>
      <point x="466" y="139"/>
      <point x="477" y="152"/>
      <point x="481" y="165" type="curve" smooth="yes"/>
      <point x="483" y="178"/>
      <point x="479" y="191"/>
      <point x="458" y="191" type="curve" smooth="yes"/>
      <point x="439" y="191"/>
      <point x="396" y="173"/>
      <point x="282" y="173" type="curve" smooth="yes"/>
      <point x="169" y="173"/>
      <point x="131" y="191"/>
    </contour>
    <contour>
      <point x="137" y="299" type="curve" smooth="yes"/>
      <point x="117" y="299"/>
      <point x="106" y="286"/>
      <point x="103" y="273" type="curve" smooth="yes"/>
      <point x="100" y="260"/>
      <point x="107" y="247"/>
      <point x="126" y="247" type="curve" smooth="yes"/>
      <point x="147" y="247"/>
      <point x="191" y="265"/>
      <point x="305" y="265" type="curve"/>
      <point x="305" y="281" type="line"/>
      <point x="194" y="281"/>
      <point x="157" y="299"/>
    </contour>
  </outline>
</glyph>
<glyph name="trademark" format="2">
  <advance width="1027"/>
  <unicode hex="2122"/>
  <outline>
    <contour>
      <point x="273" y="700" type="line" smooth="yes"/>
      <point x="267" y="700"/>
      <point x="257" y="712"/>
      <point x="252" y="712" type="curve" smooth="yes"/>
      <point x="248" y="712"/>
      <point x="244" y="711"/>
      <point x="242" y="707" type="curve" smooth="yes"/>
      <point x="200" y="595" type="line" smooth="yes"/>
      <point x="198" y="591"/>
      <point x="199" y="587"/>
      <point x="203" y="586" type="curve" smooth="yes"/>
      <point x="205" y="585"/>
      <point x="209" y="587"/>
      <point x="212" y="591" type="curve" smooth="yes"/>
      <point x="251" y="654"/>
      <point x="285" y="677"/>
      <point x="330" y="677" type="curve" smooth="yes"/>
      <point x="378" y="677" type="line"/>
      <point x="291" y="347" type="line" smooth="yes"/>
      <point x="288" y="335"/>
      <point x="280" y="329"/>
      <point x="262" y="326" type="curve" smooth="yes"/>
      <point x="218" y="318" type="line" smooth="yes"/>
      <point x="211" y="317"/>
      <point x="208" y="315"/>
      <point x="207" y="312" type="curve" smooth="yes"/>
      <point x="206" y="308"/>
      <point x="209" y="306"/>
      <point x="215" y="306" type="curve" smooth="yes"/>
      <point x="414" y="306" type="line" smooth="yes"/>
      <point x="420" y="306"/>
      <point x="424" y="307"/>
      <point x="424" y="310" type="curve" smooth="yes"/>
      <point x="425" y="314"/>
      <point x="423" y="316"/>
      <point x="415" y="318" type="curve" smooth="yes"/>
      <point x="370" y="327" type="line" smooth="yes"/>
      <point x="359" y="329"/>
      <point x="355" y="335"/>
      <point x="358" y="347" type="curve" smooth="yes"/>
      <point x="445" y="677" type="line"/>
      <point x="487" y="677" type="line" smooth="yes"/>
      <point x="531" y="677"/>
      <point x="554" y="654"/>
      <point x="561" y="591" type="curve" smooth="yes"/>
      <point x="562" y="587"/>
      <point x="565" y="585"/>
      <point x="568" y="586" type="curve" smooth="yes"/>
      <point x="572" y="587"/>
      <point x="574" y="589"/>
      <point x="575" y="595" type="curve" smooth="yes"/>
      <point x="589" y="707" type="line" smooth="yes"/>
      <point x="589" y="710"/>
      <point x="588" y="712"/>
      <point x="585" y="712" type="curve" smooth="yes"/>
      <point x="579" y="712"/>
      <point x="561" y="700"/>
      <point x="555" y="700" type="curve" smooth="yes"/>
    </contour>
    <contour>
      <point x="842" y="433" type="line"/>
      <point x="764" y="686" type="line" smooth="yes"/>
      <point x="761" y="696"/>
      <point x="757.0" y="700.0"/>
      <point x="748" y="700" type="curve" smooth="yes"/>
      <point x="654" y="700" type="line" smooth="yes"/>
      <point x="647" y="700"/>
      <point x="642" y="698"/>
      <point x="640" y="694" type="curve" smooth="yes"/>
      <point x="638" y="689"/>
      <point x="641" y="686"/>
      <point x="647" y="684" type="curve" smooth="yes"/>
      <point x="688" y="671" type="line" smooth="yes"/>
      <point x="697" y="668"/>
      <point x="697" y="660"/>
      <point x="693" y="648" type="curve" smooth="yes"/>
      <point x="604" y="366" type="line" smooth="yes"/>
      <point x="599" y="351"/>
      <point x="588" y="344"/>
      <point x="571" y="338" type="curve" smooth="yes"/>
      <point x="527" y="321" type="line" smooth="yes"/>
      <point x="514" y="316"/>
      <point x="513" y="316"/>
      <point x="512" y="312" type="curve" smooth="yes"/>
      <point x="511" y="307"/>
      <point x="514" y="306"/>
      <point x="519" y="306" type="curve" smooth="yes"/>
      <point x="680" y="306" type="line" smooth="yes"/>
      <point x="688" y="306"/>
      <point x="694" y="308"/>
      <point x="695" y="312" type="curve" smooth="yes"/>
      <point x="696" y="318"/>
      <point x="691" y="318"/>
      <point x="686" y="321" type="curve" smooth="yes"/>
      <point x="644" y="340" type="line" smooth="yes"/>
      <point x="628" y="347"/>
      <point x="622" y="354"/>
      <point x="626" y="366" type="curve" smooth="yes"/>
      <point x="710" y="629" type="line"/>
      <point x="707" y="623" type="line"/>
      <point x="787" y="363" type="line" smooth="yes"/>
      <point x="789" y="357"/>
      <point x="790" y="353"/>
      <point x="795" y="353" type="curve" smooth="yes"/>
      <point x="800" y="353"/>
      <point x="804" y="357"/>
      <point x="809" y="364" type="curve" smooth="yes"/>
      <point x="1006" y="639" type="line"/>
      <point x="997" y="638" type="line"/>
      <point x="947" y="353" type="line" smooth="yes"/>
      <point x="944" y="338"/>
      <point x="937" y="331"/>
      <point x="924" y="328" type="curve" smooth="yes"/>
      <point x="879" y="318" type="line" smooth="yes"/>
      <point x="873" y="317"/>
      <point x="870" y="315"/>
      <point x="869" y="312" type="curve" smooth="yes"/>
      <point x="868" y="308"/>
      <point x="870" y="306"/>
      <point x="876" y="306" type="curve" smooth="yes"/>
      <point x="1062" y="306" type="line" smooth="yes"/>
      <point x="1068" y="306"/>
      <point x="1070" y="307"/>
      <point x="1070" y="310" type="curve" smooth="yes"/>
      <point x="1071" y="313"/>
      <point x="1071" y="315"/>
      <point x="1065" y="317" type="curve" smooth="yes"/>
      <point x="1029" y="329" type="line" smooth="yes"/>
      <point x="1015" y="334"/>
      <point x="1011" y="339"/>
      <point x="1013" y="353" type="curve" smooth="yes"/>
      <point x="1066" y="655" type="line" smooth="yes"/>
      <point x="1068" y="667"/>
      <point x="1076" y="674"/>
      <point x="1086" y="676" type="curve" smooth="yes"/>
      <point x="1126" y="685" type="line" smooth="yes"/>
      <point x="1131" y="686"/>
      <point x="1134" y="689"/>
      <point x="1135" y="693" type="curve" smooth="yes"/>
      <point x="1136" y="697"/>
      <point x="1134" y="700"/>
      <point x="1127" y="700" type="curve" smooth="yes"/>
      <point x="1127.0" y="700.0"/>
      <point x="1053.4536082474226" y="700.0"/>
      <point x="1040" y="700" type="curve" smooth="yes"/>
      <point x="1030" y="700"/>
      <point x="1024" y="696"/>
      <point x="1017" y="686" type="curve" smooth="yes"/>
      <point x="836" y="431" type="line"/>
    </contour>
  </outline>
</glyph>
<glyph name="notequal" format="2">
  <advance width="501"/>
  <unicode hex="2260"/>
  <outline>
    <contour>
      <point x="185" y="87.0" type="curve" smooth="yes"/>
      <point x="198" y="83.0"/>
      <point x="217" y="90.0"/>
      <point x="227" y="106.0" type="curve" smooth="yes"/>
      <point x="256" y="149.0"/>
      <point x="281" y="218.0"/>
      <point x="339" y="308.0" type="curve" smooth="yes"/>
      <point x="395" y="394.0"/>
      <point x="454" y="450.0"/>
      <point x="479" y="489.0" type="curve" smooth="yes"/>
      <point x="491" y="507.0"/>
      <point x="490" y="525.0"/>
      <point x="474" y="531.0" type="curve" smooth="yes"/>
      <point x="460" y="537.0"/>
      <point x="440" y="529.0"/>
      <point x="429" y="511.0" type="curve" smooth="yes"/>
      <point x="403" y="473.0"/>
      <point x="377" y="401.0"/>
      <point x="321" y="316.0" type="curve" smooth="yes"/>
      <point x="261" y="224.0"/>
      <point x="206" y="171.0"/>
      <point x="179" y="129.0" type="curve" smooth="yes"/>
      <point x="169" y="114.0"/>
      <point x="168" y="93.0"/>
    </contour>
    <component base="equal"/>
  </outline>
</glyph>
<glyph name="Uhorn" format="2">
  <advance width="667"/>
  <outline>
    <contour>
      <point x="846" y="769" type="curve" smooth="yes"/>
      <point x="859" y="764" type="line" smooth="yes"/>
      <point x="869" y="762"/>
      <point x="871" y="756"/>
      <point x="869" y="748" type="curve" smooth="yes"/>
      <point x="862" y="719"/>
      <point x="836" y="699.0"/>
      <point x="796" y="699" type="curve" smooth="yes"/>
      <point x="781.0" y="699.0"/>
      <point x="809" y="680"/>
      <point x="806" y="668" type="curve" smooth="yes"/>
      <point x="804.1520026137404" y="661.5320091480911"/>
      <point x="811" y="652"/>
      <point x="833" y="658" type="curve" smooth="yes"/>
      <point x="879.0" y="671"/>
      <point x="914" y="706"/>
      <point x="933" y="777" type="curve" smooth="yes"/>
      <point x="950" y="839"/>
      <point x="922" y="866"/>
      <point x="889" y="866" type="curve" smooth="yes"/>
      <point x="860" y="866"/>
      <point x="831" y="842"/>
      <point x="824" y="816" type="curve" smooth="yes"/>
      <point x="818" y="793"/>
      <point x="825" y="775"/>
    </contour>
    <component base="U"/>
  </outline>
</glyph>
<glyph name="acutecomb" format="2">
  <anchor x="234" y="489" name="center"/>
  <outline>
    <contour>
      <point x="242" y="557.0" type="curve" smooth="yes"/>
      <point x="322" y="645" type="line" smooth="yes"/>
      <point x="334" y="658"/>
      <point x="349.0" y="669.0"/>
      <point x="370" y="669" type="curve" smooth="yes"/>
      <point x="399" y="669" type="line" smooth="yes"/>
      <point x="416" y="669"/>
      <point x="424" y="662"/>
      <point x="424" y="650.0" type="curve" smooth="yes"/>
      <point x="424" y="638"/>
      <point x="415" y="631"/>
      <point x="397" y="617" type="curve" smooth="yes"/>
      <point x="288" y="532" type="line" smooth="yes"/>
      <point x="272" y="520"/>
      <point x="257" y="515.0"/>
      <point x="247" y="515.0" type="curve" smooth="yes"/>
      <point x="235" y="515.0"/>
      <point x="229.0" y="520"/>
      <point x="229.0" y="531" type="curve" smooth="yes"/>
      <point x="229.0" y="540"/>
      <point x="236" y="551"/>
    </contour>
  </outline>
</glyph>
<glyph name="brevecomb.case" format="2">
  <outline>
    <contour>
      <point x="366" y="715.0" type="curve" smooth="yes"/>
      <point x="451" y="715.0"/>
      <point x="513" y="757"/>
      <point x="542" y="826" type="curve" smooth="yes"/>
      <point x="547" y="838"/>
      <point x="545" y="845.0"/>
      <point x="534" y="845" type="curve" smooth="yes"/>
      <point x="528" y="845.0"/>
      <point x="520" y="840"/>
      <point x="512" y="833" type="curve" smooth="yes"/>
      <point x="480.4938117509079" y="803.4629485164762"/>
      <point x="436.2773722627737" y="787.0"/>
      <point x="379" y="787.0" type="curve" smooth="yes"/>
      <point x="318.4222222222222" y="787.0"/>
      <point x="293.0256618634198" y="800.9069757451031"/>
      <point x="285" y="830" type="curve" smooth="yes"/>
      <point x="282" y="840"/>
      <point x="279" y="844.0"/>
      <point x="270" y="844" type="curve" smooth="yes"/>
      <point x="260" y="844"/>
      <point x="251" y="831"/>
      <point x="251" y="808" type="curve" smooth="yes"/>
      <point x="251.0" y="751.0"/>
      <point x="288" y="715.0"/>
    </contour>
  </outline>
</glyph>
